<svg width="190" height="120" viewBox="0 0 190 120" fill="none" xmlns="http://www.w3.org/2000/svg">
<g clip-path="url(#clip0_4662_38203)">
<path d="M82.7396 0.170786C106.651 -1.42354 125.825 8.27548 142.784 23.7884C137.874 33.5892 133.077 43.1618 128.099 53.0962C101.679 23.4038 69.5954 16.716 32.5547 28.8027C32.7353 28.1409 32.7249 27.7395 32.9202 27.526C43.4889 15.9709 55.8671 7.12915 71.0247 2.63606C74.7537 1.53071 78.6672 1.04723 82.7396 0.170786Z" fill="#49991B"/>
<path d="M60.8073 67.952C67.0234 75.211 74.0274 81.221 82.141 85.9157C90.5877 90.8032 99.5019 94.4182 109.244 95.6502C113.529 96.192 117.845 96.655 122.157 96.7784C133.223 97.0951 143.871 94.7637 154.863 91.1591C154.432 92.081 154.268 92.8516 153.809 93.3516C146.242 101.591 137.525 108.363 127.467 113.279C116.157 118.807 104.054 120.94 91.6288 119.615C77.8419 118.145 65.6291 112.286 54.5209 104.109C51.9639 102.227 49.491 100.23 46.9798 98.286C45.5013 97.1413 44.9101 96.0174 45.9438 94.0229C50.2333 85.7468 54.2934 77.3521 58.5531 69.0601C59.1223 67.952 60.1038 67.325 60.8073 67.952Z" fill="#49991B"/>
<path d="M155.347 31.8992C160.465 35.8719 165.449 39.6554 170.367 43.5221C176.402 48.2666 182.306 53.1816 188.433 57.8025C190.244 59.1686 190.417 59.9222 189.123 61.7861C183.673 69.6338 176.781 75.8007 168.473 80.4774C157.296 86.7686 145.342 89.8526 132.506 89.3708C126.388 89.1411 120.273 88.8182 114.157 88.5375C114.057 88.2781 113.957 88.0187 113.857 87.7594C114.959 86.7618 116.055 85.7586 117.162 84.7678C122.576 79.9239 128.308 75.3877 133.337 70.1736C141.812 61.3855 149.102 51.6823 152.517 39.6767C153.298 36.932 153.463 34.0122 153.94 30.9922C154.308 31.2154 154.746 31.4812 155.347 31.8992Z" fill="#0070AA"/>
<path d="M42.7529 71.4947C39.3315 77.6333 37.2436 84.0227 36.3251 91.4973C24.0087 81.6996 12.222 72.3234 0 62.6009C3.20121 58.8252 5.98395 55.1246 9.19278 51.8396C17.7013 43.1292 28.1978 37.8558 39.94 35.019C42.2879 34.4518 44.7913 33.8683 47.2094 33.5317C50.4605 33.0792 53.7039 32.8449 56.9483 32.7886C60.8455 32.721 64.7985 33.1294 68.7001 33.5317C71.3584 33.8058 73.9691 34.4307 77.3428 34.831C63.9067 45.5869 51.282 56.51 42.7529 71.4947Z" fill="#0070AA"/>
<path d="M85.3114 55.0156C87.1072 55.0156 88.6228 55.0156 90.3438 55.0156C90.4185 56.12 90.4861 57.1202 90.5682 58.3329C96.7087 58.3329 102.869 58.3329 109.208 58.3329C109.208 65.2573 109.208 71.9752 109.208 78.8822C105.077 78.8822 100.835 78.8822 96.3652 78.8822C96.3652 73.6238 96.3652 68.2397 96.3652 62.6592C94.5818 62.6592 93.0119 62.6592 90.935 62.6592C91.1722 67.9369 91.4155 73.3502 91.6659 78.919C87.6206 78.919 83.7612 78.919 79.7441 78.919C79.7441 71.067 79.7441 63.2056 79.7441 55.0156C81.4767 55.0156 83.254 55.0156 85.3114 55.0156Z" fill="black"/>
<path d="M82.5707 40.6594C86.3234 39.5034 90.1606 41.0894 91.3725 44.1703C92.637 47.3848 90.8979 52.0009 87.8802 53.1803C84.213 54.6136 79.8415 52.7362 78.9357 49.7128C77.8616 46.1275 78.1423 42.434 82.5707 40.6594Z" fill="black"/>
<path d="M99.9668 54.9289C96.1834 51.231 96.3337 46.329 100.099 43.4141C102.051 41.9027 105.834 42.0752 108.186 43.7828C109.905 45.0305 111.017 48.6687 110.365 50.906C109.556 53.6763 107.259 55.6039 104.566 55.5573C103.103 55.5319 101.646 55.2035 99.9668 54.9289Z" fill="black"/>
</g>
<defs>
<clipPath id="clip0_4662_38203">
<rect width="190" height="120" fill="white"/>
</clipPath>
</defs>
</svg>
