<svg width="20" height="20" viewBox="0 0 20 20" fill="none" xmlns="http://www.w3.org/2000/svg">
<path fill-rule="evenodd" clip-rule="evenodd" d="M16.3775 18.3333H5.94736C5.42585 18.3333 4.93042 18.1282 4.56537 17.7693C4.20031 17.4231 3.9917 16.9231 3.9917 16.4103V12.5641C3.9917 12.2052 4.27854 11.9231 4.64359 11.9231C5.00864 11.9231 5.29548 12.2052 5.29548 12.5641V16.4103C5.29548 16.5769 5.36066 16.7436 5.49104 16.859C5.60838 16.9872 5.77787 17.0513 5.94736 17.0513H16.3775C16.547 17.0513 16.7165 16.9872 16.8338 16.859C16.9512 16.7436 17.0294 16.5769 17.0294 16.4103V3.58975C17.0294 3.42308 16.9642 3.25641 16.8338 3.14103C16.7165 3.02565 16.547 2.94872 16.3775 2.94872H10.5105C10.1455 2.94872 9.85869 2.66667 9.85869 2.3077C9.85869 1.94872 10.1455 1.66667 10.5105 1.66667H16.3775C16.8989 1.66667 17.3945 1.8718 17.7594 2.23077C18.1245 2.58975 18.3332 3.07693 18.3332 3.58975V16.4103C18.3332 16.9231 18.1245 17.4103 17.7594 17.7693C17.3945 18.1282 16.886 18.3333 16.3775 18.3333ZM14.4219 8.0769H10.5105C10.1455 8.0769 9.85869 7.79485 9.85869 7.43587C9.85869 7.0769 10.1455 6.79485 10.5105 6.79485H14.4219C14.7869 6.79485 15.0737 7.0769 15.0737 7.43587C15.0737 7.79485 14.7869 8.0769 14.4219 8.0769ZM10.5105 11.2821H14.4219C14.7869 11.2821 15.0737 11 15.0737 10.641C15.0737 10.2821 14.7869 10 14.4219 10H10.5105C10.1455 10 9.85869 10.2821 9.85869 10.641C9.85869 11 10.1455 11.2821 10.5105 11.2821ZM14.4219 14.4873H7.90304C7.53798 14.4873 7.25116 14.2052 7.25116 13.8462C7.25116 13.4873 7.53798 13.2052 7.90304 13.2052H14.4219C14.7869 13.2052 15.0737 13.4873 15.0737 13.8462C15.0737 14.2052 14.7869 14.4873 14.4219 14.4873ZM6.1559 10.4103C5.98641 10.4103 5.82996 10.3462 5.71262 10.2308L1.86651 6.64102C1.67094 6.46154 1.6188 6.1923 1.71006 5.94871C1.80132 5.70513 2.036 5.55128 2.30979 5.55128H4.63049C5.08681 5.55128 5.49098 5.32051 5.73869 4.96154H2.30979C1.95778 4.96154 1.67094 4.67949 1.67094 4.32051C1.67094 3.96154 1.95778 3.6923 2.30979 3.6923H5.81692C5.59528 3.24359 5.13896 2.96154 4.63049 2.96154H2.30979C1.95778 2.96154 1.67094 2.67949 1.67094 2.32051C1.67094 1.96154 1.95778 1.69231 2.30979 1.69231H8.04636C8.39838 1.69231 8.68523 1.97436 8.68523 2.32051C8.68523 2.66666 8.39838 2.94871 8.04636 2.94871H6.87297C7.00335 3.17949 7.10765 3.42307 7.17283 3.67949H8.04636C8.39838 3.67949 8.68523 3.96154 8.68523 4.30769C8.68523 4.65385 8.39838 4.9359 8.04636 4.9359H7.13373C6.82082 6.03846 5.80389 6.79487 4.63049 6.79487H3.91343L6.59918 9.29484C6.85993 9.53842 6.87297 9.93592 6.62526 10.1923C6.50792 10.3205 6.33843 10.3846 6.1559 10.3846V10.4103Z" fill="#767888"/>
</svg>
