<svg width="20" height="20" viewBox="0 0 20 20" fill="none" xmlns="http://www.w3.org/2000/svg">
<path fill-rule="evenodd" clip-rule="evenodd" d="M3.45262 18.3333H16.5471C17.5359 18.3333 18.3332 17.5361 18.3332 16.5472V3.45278C18.3332 2.46389 17.5359 1.66667 16.5471 1.66667H3.45262C2.46373 1.66667 1.6665 2.46389 1.6665 3.45278V16.5472C1.6665 17.5361 2.46373 18.3333 3.45262 18.3333ZM2.85724 3.45278C2.85724 3.11945 3.11928 2.8574 3.45262 2.8574H16.5471C16.8804 2.8574 17.1424 3.11945 17.1424 3.45278V16.5472C17.1424 16.8806 16.8804 17.1426 16.5471 17.1426H3.45262C3.11928 17.1426 2.85724 16.8806 2.85724 16.5472V3.45278ZM8.54706 8.66666H8.5591H8.53595H8.54706ZM8.90447 8.51204C8.80076 8.61575 8.67484 8.66389 8.54706 8.66666C8.42021 8.66389 8.29429 8.61575 8.19058 8.51204L6.85725 7.17871V13.1787C6.85725 13.2741 6.89242 13.3694 6.96372 13.4407C7.03594 13.512 7.13039 13.5472 7.22576 13.5472H8.99983C9.28595 13.5472 9.5239 13.7861 9.5239 14.0713C9.5239 14.3574 9.28595 14.5954 8.99983 14.5954H7.22576C6.85724 14.5954 6.4878 14.4407 6.22576 14.1787C5.96372 13.9167 5.80909 13.5593 5.80909 13.1907V7.17871L4.47576 8.51204C4.27391 8.71389 3.94058 8.71389 3.7378 8.51204C3.53595 8.30926 3.53595 7.97592 3.7378 7.77407L5.95261 5.54722C6.04983 5.45 6.18688 5.40278 6.32484 5.40463H6.33316C6.44798 5.40463 6.55539 5.44351 6.64242 5.5074C6.65909 5.51944 6.67483 5.53333 6.69057 5.54722L6.69891 5.55555L6.70818 5.56482L8.90447 7.77407C9.10724 7.97592 9.10724 8.30926 8.90447 8.51204ZM13.2915 14.4343C13.3869 14.5333 13.5211 14.5954 13.6665 14.5954H13.6711H13.6906C13.8332 14.5954 13.9637 14.5361 14.0591 14.4407L16.2739 12.2139C16.4758 12.012 16.4758 11.6787 16.2739 11.4759C16.0711 11.2741 15.7378 11.2741 15.5359 11.4759L14.1906 12.8213V6.8213C14.1906 6.44074 14.036 6.08333 13.7739 5.8213C13.5119 5.55926 13.1424 5.40463 12.7739 5.40463H10.9998C10.7137 5.40463 10.4758 5.64259 10.4758 5.9287C10.4758 6.21389 10.7137 6.45278 10.9998 6.45278H12.7739C12.8693 6.45278 12.9637 6.48796 13.036 6.55926C13.1072 6.63055 13.1424 6.72593 13.1424 6.8213V12.7972L11.8211 11.4759C11.6193 11.2741 11.2859 11.2741 11.0832 11.4759C10.8804 11.6787 10.8804 12.012 11.0832 12.2139L13.2915 14.4343Z" fill="#767888"/>
</svg>
