<?xml version="1.0" encoding="utf-8"?>
<!-- Generator: Adobe Illustrator 27.8.1, SVG Export Plug-In . SVG Version: 6.00 Build 0)  -->
<svg version="1.1" id="Layer_1" xmlns="http://www.w3.org/2000/svg" xmlns:xlink="http://www.w3.org/1999/xlink" x="0px" y="0px"
	 viewBox="0 0 24 24" style="enable-background:new 0 0 24 24;" xml:space="preserve">
<style type="text/css">
	.st0{clip-path:url(#SVGID_00000145737187855597047700000018023837318767968945_);}
	.st1{fill:#838799;}
</style>
<g>
	<defs>
		<rect id="SVGID_1_" x="2.05" y="1.74" width="20.89" height="20.61"/>
	</defs>
	<clipPath id="SVGID_00000035496217664584212260000000330473366385574034_">
		<use xlink:href="#SVGID_1_"  style="overflow:visible;"/>
	</clipPath>
	<g style="clip-path:url(#SVGID_00000035496217664584212260000000330473366385574034_);">
		<path class="st1" d="M9.93,10.76c-1.95,0-3.54-1.59-3.54-3.54s1.59-3.54,3.54-3.54s3.54,1.59,3.54,3.54S11.88,10.76,9.93,10.76z
			 M9.93,4.98c-1.24,0-2.25,1.01-2.25,2.25s1.01,2.25,2.25,2.25s2.25-1.01,2.25-2.25S11.17,4.98,9.93,4.98z"/>
		<path class="st1" d="M15.71,20.4H4.14c-0.36,0-0.64-0.29-0.64-0.64v-1.29c0-1.72,0.67-3.33,1.88-4.55
			c1.22-1.21,2.83-1.88,4.55-1.88c1.69,0,3.35,0.69,4.55,1.88c1.21,1.21,1.88,2.83,1.88,4.55v1.29
			C16.36,20.12,16.07,20.4,15.71,20.4z M4.78,19.12h10.29v-0.64c0-1.37-0.53-2.66-1.51-3.64c-0.96-0.96-2.28-1.51-3.64-1.51
			c-1.37,0-2.67,0.53-3.64,1.51c-0.97,0.97-1.51,2.26-1.51,3.64V19.12z"/>
		<path class="st1" d="M15.07,10.76c-0.36,0-0.64-0.29-0.64-0.64c0-0.36,0.29-0.64,0.64-0.64c0.6,0,1.17-0.23,1.59-0.66
			c0.42-0.43,0.66-0.99,0.66-1.59s-0.23-1.17-0.66-1.59c-0.43-0.43-0.99-0.66-1.59-0.66c-0.36,0-0.64-0.29-0.64-0.64
			s0.29-0.64,0.64-0.64c0.94,0,1.83,0.37,2.5,1.04s1.04,1.56,1.04,2.5c0,0.94-0.37,1.83-1.04,2.5
			C16.9,10.39,16.01,10.76,15.07,10.76z"/>
		<path class="st1" d="M20.86,20.4h-1.93c-0.36,0-0.64-0.29-0.64-0.64c0-0.36,0.29-0.64,0.64-0.64h1.29v-0.78
			c0-1.04-0.32-2.05-0.91-2.91c-0.6-0.86-1.43-1.51-2.4-1.89c-0.33-0.13-0.5-0.5-0.37-0.83c0.13-0.33,0.5-0.5,0.83-0.37
			c1.22,0.46,2.26,1.28,3,2.36c0.74,1.08,1.14,2.34,1.14,3.64v1.43C21.5,20.12,21.21,20.4,20.86,20.4z"/>
	</g>
</g>
</svg>
