<svg width="20" height="20" viewBox="0 0 20 20" fill="none" xmlns="http://www.w3.org/2000/svg">
<path d="M18.3333 9.08333V3.41666C18.3333 2.16666 17.8 1.66666 16.475 1.66666H13.1083C11.7833 1.66666 11.25 2.16666 11.25 3.41666V9.08333C11.25 10.3333 11.7833 10.8333 13.1083 10.8333H16.475C17.8 10.8333 18.3333 10.3333 18.3333 9.08333Z" stroke="#838799" stroke-width="1.5" stroke-linecap="round" stroke-linejoin="round"/>
<path d="M18.3333 16.5833V15.0833C18.3333 13.8333 17.8 13.3333 16.475 13.3333H13.1083C11.7833 13.3333 11.25 13.8333 11.25 15.0833V16.5833C11.25 17.8333 11.7833 18.3333 13.1083 18.3333H16.475C17.8 18.3333 18.3333 17.8333 18.3333 16.5833Z" stroke="#838799" stroke-width="1.5" stroke-linecap="round" stroke-linejoin="round"/>
<path d="M8.74984 10.9167V16.5833C8.74984 17.8333 8.2165 18.3333 6.8915 18.3333H3.52484C2.19984 18.3333 1.6665 17.8333 1.6665 16.5833V10.9167C1.6665 9.66666 2.19984 9.16666 3.52484 9.16666H6.8915C8.2165 9.16666 8.74984 9.66666 8.74984 10.9167Z" stroke="#838799" stroke-width="1.5" stroke-linecap="round" stroke-linejoin="round"/>
<path d="M8.74984 3.41666V4.91666C8.74984 6.16666 8.2165 6.66666 6.8915 6.66666H3.52484C2.19984 6.66666 1.6665 6.16666 1.6665 4.91666V3.41666C1.6665 2.16666 2.19984 1.66666 3.52484 1.66666H6.8915C8.2165 1.66666 8.74984 2.16666 8.74984 3.41666Z" stroke="#838799" stroke-width="1.5" stroke-linecap="round" stroke-linejoin="round"/>
</svg>
