<svg width="20" height="20" viewBox="0 0 20 20" fill="none" xmlns="http://www.w3.org/2000/svg">
<path fill-rule="evenodd" clip-rule="evenodd" d="M17.7821 5.39502C17.6371 5.39502 17.5021 5.33369 17.3905 5.22547L15.993 3.7031V9.01334C15.993 9.34073 15.7463 9.60678 15.4447 9.60678C15.143 9.60678 14.8972 9.34073 14.8972 9.01334V3.7004L13.4989 5.21285C13.2864 5.44283 12.9397 5.44283 12.7155 5.21285C12.503 4.98287 12.503 4.60768 12.7155 4.36598L15.053 1.83622C15.1538 1.7271 15.2997 1.66667 15.4447 1.66667C15.5905 1.66667 15.7355 1.7271 15.8363 1.83622L18.1738 4.36598C18.3863 4.59596 18.3863 4.97115 18.1738 5.21285C18.0621 5.3337 17.9271 5.39502 17.7821 5.39502ZM14.338 18.3333H3.32148C2.88565 18.3333 2.46066 18.1394 2.14733 17.813C1.84566 17.4865 1.6665 17.0139 1.6665 16.5422V4.60769C1.6665 4.136 1.84566 3.67605 2.14733 3.33695C2.44899 3.01047 2.87399 2.81655 3.31066 2.81655H11.2506C11.553 2.81655 11.7989 3.08261 11.7989 3.40999C11.7989 3.73647 11.5639 4.01516 11.2622 4.01516H3.32148C3.17648 4.01516 3.03065 4.07557 2.93065 4.19642C2.82982 4.30555 2.76233 4.45076 2.76233 4.60769V16.5422C2.76233 16.6991 2.81816 16.857 2.91899 16.9661C3.01982 17.0743 3.16482 17.1474 3.31066 17.1474H14.338C14.483 17.1474 14.628 17.0869 14.7288 16.9778C14.8297 16.8687 14.8855 16.7118 14.8855 16.5539V11.1679C14.8855 10.8415 15.1313 10.5754 15.4338 10.5754C15.7355 10.5754 15.9813 10.8415 15.9813 11.1679V16.5422C15.9813 17.0139 15.803 17.4738 15.5005 17.813C15.1988 18.1394 14.7738 18.3333 14.338 18.3333ZM9.22641 14.5211C9.31641 14.6059 9.42807 14.6537 9.53973 14.6537C9.6739 14.6537 9.78556 14.5933 9.8864 14.4968C9.96473 14.3993 10.0097 14.2785 10.0097 14.1459C9.99806 14.0242 9.9539 13.8916 9.8639 13.8068L7.88476 11.7731H8.43225C9.28224 11.7731 10.0206 11.1679 10.2447 10.2841H10.9156C11.173 10.2841 11.3739 10.0785 11.3739 9.80068C11.3739 9.522 11.1614 9.30375 10.9156 9.30375H10.2664C10.2222 9.0864 10.1547 8.88077 10.0431 8.68687H10.9156C11.173 8.68687 11.3855 8.46861 11.3855 8.19083C11.3855 7.91215 11.173 7.6939 10.9264 7.6939H6.74394C6.48644 7.6939 6.28561 7.91215 6.28561 8.19083C6.28561 8.46861 6.49811 8.68687 6.74394 8.68687H8.43225C8.81308 8.68687 9.15973 8.92857 9.3164 9.2803H6.74394C6.48644 9.2803 6.28561 9.49766 6.28561 9.77634C6.28561 10.0541 6.49811 10.2724 6.74394 10.2724H9.26058C9.09225 10.5871 8.77975 10.781 8.43225 10.781H6.74394C6.55394 10.781 6.38644 10.9136 6.31894 11.0958C6.25144 11.2888 6.29644 11.4953 6.43061 11.6405L9.22641 14.5211Z" fill="#767888"/>
</svg>
