<svg width="20" height="20" viewBox="0 0 20 20" fill="none" xmlns="http://www.w3.org/2000/svg">
<g id="vuesax/linear/health">
<g id="health">
<path id="Vector" d="M7.47493 18.3334H12.4749C16.6416 18.3334 18.3083 16.6667 18.3083 12.5V7.50002C18.3083 3.33335 16.6416 1.66669 12.4749 1.66669H7.47493C3.30827 1.66669 1.6416 3.33335 1.6416 7.50002V12.5C1.6416 16.6667 3.30827 18.3334 7.47493 18.3334Z" stroke="#838799" stroke-width="1.5" stroke-linecap="round" stroke-linejoin="round"/>
<g id="Vector_2">
<path d="M1.6416 10.5833L6.6416 10.5667C7.2666 10.5667 7.9666 11.0417 8.19993 11.625L9.14993 14.025C9.3666 14.5667 9.70827 14.5667 9.92494 14.025L11.8333 9.18334C12.0166 8.71668 12.3583 8.70001 12.5916 9.14168L13.4583 10.7833C13.7166 11.275 14.3833 11.675 14.9333 11.675H18.3166" fill="#838799"/>
<path d="M1.6416 10.5833L6.6416 10.5667C7.2666 10.5667 7.9666 11.0417 8.19994 11.625L9.14993 14.025C9.3666 14.5667 9.70827 14.5667 9.92493 14.025L11.8333 9.18334C12.0166 8.71668 12.3583 8.70001 12.5916 9.14168L13.4583 10.7833C13.7166 11.275 14.3833 11.675 14.9333 11.675H18.3166" stroke="#838799" stroke-width="1.5" stroke-linecap="round" stroke-linejoin="round"/>
</g>
</g>
</g>
</svg>
