<svg width="139" height="101" viewBox="0 0 139 101" fill="none" xmlns="http://www.w3.org/2000/svg">
<g clip-path="url(#clip0_557_39422)">
<path d="M37.1417 81.5205C30.4653 81.5205 24.2474 78.7043 20.0826 73.7948C16.2221 69.3218 14.3577 63.4802 14.8444 57.3568C15.9043 44.034 27.5039 33.1959 40.7025 33.1959C41.1061 33.1959 41.5584 33.1959 42.0315 33.233C47.9812 21.7907 59.691 14.4699 72.225 14.4699C83.4735 14.4699 93.5727 20.5878 98.5807 30.4359C99.0484 31.3489 99.4627 32.2828 99.8338 33.262C100.224 33.2213 100.61 33.1959 100.984 33.1959C105.446 33.1959 109.529 34.9396 112.483 38.1054C114.965 40.7676 116.386 44.1563 116.581 47.8059C120.633 48.0804 124.312 49.8249 127.038 52.787C130.028 56.0353 131.476 60.3189 131.116 64.8489C130.386 74.0411 122.277 81.5205 113.041 81.5205H37.1417Z" fill="#E1E5E2"/>
<path d="M31.1099 81.5205C24.4334 81.5205 18.2147 78.7043 14.0508 73.7948C10.1894 69.3218 8.32591 63.4802 8.81254 57.3568C9.87157 44.034 21.4721 33.1959 34.6707 33.1959C35.0743 33.1959 35.5266 33.1959 35.9988 33.233C41.9494 21.7907 53.6582 14.4699 66.1923 14.4699C77.4417 14.4699 87.5408 20.5878 92.5489 30.4359C93.0156 31.3489 93.4309 32.2828 93.802 33.262C94.192 33.2213 94.5784 33.1959 94.9522 33.1959C99.414 33.1959 103.498 34.9396 106.451 38.1054C108.934 40.7676 110.354 44.1563 110.55 47.8059C114.601 48.0804 118.281 49.8249 121.006 52.787C123.996 56.0353 125.445 60.3189 125.084 64.8489C124.354 74.0411 116.245 81.5205 107.009 81.5205H31.1099Z" fill="white"/>
<path d="M62.339 69.1362H71.5389C72.1492 69.1362 72.644 68.6398 72.644 68.0275V49.4826C72.644 48.8703 73.1387 48.3739 73.749 48.3739H78.3472C79.2347 48.3739 79.7601 47.3757 79.259 46.6393L67.8499 29.8779C67.4111 29.233 66.464 29.233 66.0253 29.8779L54.6152 46.6429C54.115 47.3784 54.6396 48.3766 55.528 48.3766H60.1289C60.7392 48.3766 61.2339 48.873 61.2339 49.4854V68.0275C61.2339 68.6398 61.7287 69.1362 62.339 69.1362Z" fill="#657AFF"/>
<path d="M54.8363 46.7955L66.2473 30.0288C66.399 29.7933 66.6572 29.6637 66.938 29.6637C67.2179 29.6637 67.4688 29.7933 67.6277 30.0288L79.0396 46.7882C79.2211 47.0546 79.2364 47.3734 79.092 47.6551C78.9403 47.9368 78.6604 48.1117 78.3489 48.1117H73.7463C72.996 48.1117 72.3821 48.7276 72.3821 49.4813V68.0279C72.3821 68.4917 72.0029 68.8722 71.5397 68.8722H62.3353C61.8722 68.8722 61.5011 68.4917 61.5011 68.0279V49.4885C61.5011 48.7276 60.8872 48.1117 60.1288 48.1117H55.5261C55.2074 48.1117 54.9348 47.9441 54.7831 47.6633C54.6386 47.3816 54.654 47.0546 54.8363 46.7955ZM55.5261 48.6443H60.1288C60.5911 48.6443 60.9702 49.0247 60.9702 49.4885V68.0279C60.9702 68.7888 61.5842 69.4048 62.3353 69.4048H71.5397C72.2981 69.4048 72.913 68.7888 72.913 68.0279V49.4813C72.913 49.0166 73.284 48.6361 73.7463 48.6361H78.3489C78.8572 48.6361 79.3195 48.3626 79.5624 47.9061C79.7971 47.4577 79.7673 46.9096 79.4793 46.4911L68.0674 29.7317C67.8173 29.3512 67.393 29.1311 66.938 29.1311C66.483 29.1311 66.0577 29.3512 65.8076 29.7317L54.3967 46.4911C54.1078 46.9169 54.078 47.4577 54.3127 47.9061C54.5556 48.3626 55.0178 48.6443 55.5261 48.6443Z" fill="#3C4150"/>
<path d="M153.081 240.528H121.895V107.351H153.081V240.528ZM151.224 248.287H122.449V241.06H151.224V248.287ZM121.918 248.287H65.5503V241.068C65.6035 241.068 65.6261 241.068 65.6261 241.068C66.3312 241.068 72.9129 241.068 121.918 241.06V248.287ZM65.0194 248.287H46.9581V241.06H47.2082C47.2308 241.06 47.2461 241.06 47.2461 241.06C48.2167 241.06 52.0456 241.06 65.0194 241.068V248.287ZM46.4272 248.287H-9.94044V241.068C-9.88718 241.068 -9.86459 241.068 -9.86459 241.068C-9.15948 241.068 -2.5778 241.068 46.4272 241.06V248.287ZM-12.2156 240.535C-12.2156 227.191 -12.2156 119.261 -12.2156 107.343H45.8738V240.528C41.0283 240.528 -3.74608 240.535 -12.2156 240.535ZM31.5431 61.12C30.8678 61.12 30.3224 60.5729 30.3224 59.9026C30.3224 59.2332 30.8678 58.6861 31.5431 58.6861C32.2103 58.6861 32.7565 59.2332 32.7565 59.9026C32.7565 60.5729 32.2103 61.12 31.5431 61.12ZM42.6209 54.8744C41.9456 54.8744 41.4003 54.3273 41.4003 53.6497C41.4003 52.9803 41.9456 52.4323 42.6209 52.4323C43.2881 52.4323 43.8343 52.9803 43.8343 53.6497C43.8343 54.3273 43.2881 54.8744 42.6209 54.8744ZM93.3088 53.6497C93.3088 52.9803 93.8551 52.4323 94.5223 52.4323C95.1895 52.4323 95.7357 52.9803 95.7357 53.6497C95.7357 54.3273 95.1895 54.8744 94.5223 54.8744C93.8551 54.8744 93.3088 54.3273 93.3088 53.6497ZM104.388 59.9026C104.388 59.2332 104.926 58.6861 105.6 58.6861C106.267 58.6861 106.813 59.2332 106.813 59.9026C106.813 60.5729 106.267 61.12 105.6 61.12C104.926 61.12 104.388 60.5729 104.388 59.9026ZM31.1106 81.2573C24.5064 81.2573 18.3644 78.4728 14.2547 73.6194C10.4339 69.1999 8.5984 63.4326 9.076 57.3772C10.1224 44.1938 21.6101 33.4599 34.6669 33.4599C35.0687 33.4599 35.5165 33.4599 35.9787 33.4979C36.0925 33.5124 36.1837 33.4517 36.236 33.353C42.1126 22.0483 53.873 14.7374 66.1949 14.7374C77.3404 14.7374 87.3492 20.801 92.3157 30.5612C92.7789 31.4743 93.1879 32.3865 93.5517 33.353C93.5977 33.4671 93.7034 33.536 93.8325 33.5278C94.2496 33.4825 94.6207 33.4599 94.9547 33.4599C99.3371 33.4599 103.356 35.1791 106.26 38.2906C108.701 40.9075 110.089 44.2011 110.287 47.8225C110.294 47.9521 110.4 48.0653 110.529 48.0735C114.502 48.3398 118.149 50.0817 120.811 52.9649C123.752 56.1597 125.171 60.3745 124.821 64.8248C124.101 73.8857 116.11 81.2573 107.01 81.2573H97.5856V73.566H105.6C105.745 73.566 105.865 73.4446 105.865 73.2997V61.63C106.7 61.5004 107.344 60.7776 107.344 59.9026C107.344 58.937 106.563 58.1534 105.6 58.1534C104.638 58.1534 103.857 58.937 103.857 59.9026C103.857 60.7776 104.493 61.5004 105.335 61.63V73.0334H97.3201C97.1766 73.0334 97.0547 73.1556 97.0547 73.2997V81.2573H86.5078V67.3131H94.5223C94.6667 67.3131 94.7877 67.199 94.7877 67.0468V55.3762C95.6219 55.2476 96.2665 54.5247 96.2665 53.6497C96.2665 52.6832 95.4856 51.8997 94.5223 51.8997C93.5598 51.8997 92.7789 52.6832 92.7789 53.6497C92.7789 54.5247 93.4226 55.2476 94.2568 55.3762V66.7805H86.2423C86.0979 66.7805 85.9769 66.9019 85.9769 67.0468V81.2573H51.1581V67.0468C51.1581 66.9019 51.0371 66.7805 50.8936 66.7805H42.8864V55.3762C43.7206 55.2476 44.3652 54.5247 44.3652 53.6497C44.3652 52.6832 43.5761 51.8997 42.6209 51.8997C41.6576 51.8997 40.8694 52.6832 40.8694 53.6497C40.8694 54.5247 41.514 55.2476 42.3555 55.3762V67.0468C42.3555 67.199 42.4692 67.3131 42.6209 67.3131H50.6282V81.2573H40.0803V73.2997C40.0803 73.1556 39.9666 73.0334 39.8149 73.0334H31.8085V61.63C32.6428 61.5004 33.2865 60.7776 33.2865 59.9026C33.2865 58.937 32.5055 58.1534 31.5431 58.1534C30.5798 58.1534 29.7916 58.937 29.7916 59.9026C29.7916 60.7776 30.4362 61.5004 31.2777 61.63V73.2997C31.2777 73.4446 31.3914 73.566 31.5431 73.566H39.5494V81.2573H31.1106ZM72.2222 14.7374C83.3768 14.7374 93.3847 20.801 98.3439 30.5612C98.8062 31.4662 99.2161 32.3792 99.5872 33.3602C99.6251 33.4671 99.7469 33.536 99.8607 33.5278C100.285 33.4825 100.649 33.4599 100.983 33.4599C105.373 33.4599 109.384 35.1791 112.288 38.2906C114.73 40.9075 116.124 44.2011 116.314 47.8225C116.322 47.9521 116.428 48.0653 116.564 48.0735C120.537 48.3398 124.185 50.0817 126.846 52.9649C129.781 56.1597 131.206 60.3745 130.85 64.8248C130.129 73.8857 122.145 81.2573 113.039 81.2573H111.287C118.763 79.3786 124.723 72.7444 125.352 64.871C125.716 60.2685 124.245 55.9088 121.197 52.6071C118.505 49.6714 114.813 47.8905 110.802 47.5562C110.551 43.9049 109.118 40.5805 106.646 37.9247C103.645 34.7072 99.4887 32.9272 94.9547 32.9272C94.6586 32.9272 94.3326 32.9417 93.9769 32.9798C93.6203 32.0595 93.233 31.1844 92.7861 30.3176C88.5933 22.071 80.8587 16.4341 71.8737 14.7447C71.9875 14.7447 72.1085 14.7374 72.2222 14.7374ZM86.5078 106.819V81.7899H97.0547V106.819H86.5078ZM51.1581 106.819V81.7899H85.9769V106.819H51.1581ZM40.0803 106.811V81.7899H50.6282V106.819C47.0493 106.819 43.5228 106.811 40.0803 106.811ZM62.7442 113.81V234.068H52.8492V113.81H62.7442ZM52.5837 113.277C52.4401 113.277 52.3183 113.399 52.3183 113.543V234.335C52.3183 234.48 52.4401 234.601 52.5837 234.601H62.7442V240.528H46.4047V107.351H62.7442V113.277H52.5837ZM121.364 107.343V240.528C88.2141 240.528 98.0027 240.528 63.2751 240.528V107.351C66.0883 107.351 119.022 107.343 121.364 107.343ZM-134.633 169.108C-159.405 169.108 -142.155 169.108 -168.474 169.108C-166.889 163.928 -168.375 168.766 -161.437 146.164C-161.315 145.769 -161.005 145.465 -160.626 145.35C-160.512 145.312 -160.391 145.297 -160.27 145.297H-127.93C-127.787 145.297 -127.658 145.366 -127.574 145.48C-127.491 145.594 -127.468 145.738 -127.506 145.875C-129.538 152.494 -132.457 162.018 -134.633 169.108ZM-130.099 172.76C-132.176 171.467 -134.012 170.805 -134.55 170.622L-134.193 169.473V169.466C-134.057 169.002 -133.587 167.488 -133.557 167.396C-132.54 168.835 -131.312 170.668 -130.099 172.76ZM-123.024 184.415C-122.517 193.848 -120.159 235.4 -119.893 240.109C-119.863 240.626 -120.045 241.113 -120.393 241.486C-120.75 241.867 -121.228 242.071 -121.75 242.071H-122.85L-129.804 242.057H-131.221C-132.222 242.057 -133.033 241.265 -133.071 240.261C-133.261 235.279 -134.019 221.653 -137.007 207.754C-137.044 207.579 -137.082 207.405 -137.128 207.23C-137.75 204.347 -138.477 201.455 -139.32 198.633C-139.236 191.102 -139.851 184.795 -141.723 181.919C-145.097 176.731 -149.806 173.856 -153.499 172.296H-135.255C-135.141 172.296 -135.036 172.22 -135.005 172.113L-134.702 171.132C-134.11 171.33 -131.881 172.144 -129.523 173.78C-125.868 176.252 -123.275 179.888 -123.024 184.415ZM-129.871 245.435L-129.811 242.589L-122.865 242.604L-122.911 244.788C-123.358 245.023 -123.669 245.495 -123.677 246.035C-123.692 246.218 -123.957 248.128 -125.534 248.272C-128.31 248.546 -129.728 245.594 -129.742 245.563C-129.773 245.503 -129.818 245.457 -129.871 245.435ZM-122.221 245.137H-122.214C-121.826 245.137 -121.485 245.388 -121.357 245.753L-120.492 248.188C-120.469 248.264 -120.409 248.325 -120.333 248.348L-113.6 250.645L-113.015 253.277L-132.821 253.149C-132.852 253.149 -132.882 253.126 -132.882 253.095L-132.874 251.938L-131.07 251.954H-130.797L-115.73 252.053C-115.579 252.053 -115.465 251.931 -115.465 251.786C-115.465 251.642 -115.579 251.52 -115.723 251.52L-130.395 251.421C-130.297 251.155 -130.251 250.881 -130.251 250.608C-130.251 250.349 -130.289 250.09 -130.372 249.839C-130.539 249.314 -130.865 248.88 -131.282 248.569C-131.6 248.34 -131.972 248.173 -132.374 248.112C-132.033 247.313 -131.441 246.499 -130.418 246.104C-130.319 246.058 -130.221 246.02 -130.114 245.99C-130.061 246.08 -129.985 246.21 -129.894 246.355C-129.432 247.062 -128.477 248.234 -127.02 248.66C-126.596 248.789 -126.134 248.85 -125.618 248.811C-125.58 248.811 -125.534 248.811 -125.489 248.804C-123.843 248.652 -123.237 246.955 -123.146 246.08V246.051C-123.146 245.83 -123.062 245.625 -122.926 245.464C-122.79 245.305 -122.6 245.191 -122.388 245.153C-122.335 245.145 -122.281 245.137 -122.221 245.137ZM-112.5 251.018C-111.56 251.345 -110.931 252.235 -110.931 253.232L-110.991 253.293L-112.47 253.285L-113.008 250.843L-112.5 251.018ZM-139.729 208.211C-139.539 205.533 -139.41 202.893 -139.349 200.367C-138.698 202.695 -138.113 205.068 -137.606 207.427C-138.288 207.709 -138.993 207.967 -139.729 208.211ZM-139.873 198.549C-139.911 201.676 -140.07 205.016 -140.297 208.408C-140.313 208.591 -140.328 208.781 -140.343 208.972C-141.283 222.239 -143.361 236.092 -144.051 240.474C-144.097 240.71 -144.157 240.9 -144.263 241.068C-144.574 241.676 -145.203 242.049 -145.893 242.049H-155.121C-156.099 242.049 -156.918 241.289 -156.979 240.315L-158.852 212.007L-158.89 211.474L-160.527 186.75C-160.534 186.682 -160.565 186.613 -160.618 186.567C-160.664 186.53 -160.724 186.506 -160.793 186.506H-160.815C-176.397 187.983 -187.581 185.716 -193.154 179.949C-197.014 175.963 -197.029 171.474 -196.968 170.409L-196.62 170.417C-196.544 170.432 -196.468 170.447 -196.392 170.455C-196.298 170.473 -196.195 170.488 -196.096 170.504C-195.897 170.535 -195.695 170.559 -195.492 170.583C-195.395 170.593 -195.301 170.608 -195.202 170.615C-195.217 170.691 -195.224 170.775 -195.224 170.858V172.038C-195.224 172.182 -195.111 172.303 -194.959 172.303C-194.883 172.303 -154.939 172.296 -154.939 172.296C-151.201 173.673 -145.863 176.526 -142.17 182.208C-140.502 184.757 -139.88 190.219 -139.865 196.845C-139.865 197.408 -139.873 197.971 -139.873 198.549ZM-154.196 245.435L-154.135 242.581H-147.19L-147.236 244.788C-147.683 245.023 -147.986 245.495 -147.993 246.035C-148.017 246.195 -148.289 248.128 -149.858 248.272C-152.627 248.546 -154.052 245.594 -154.067 245.563C-154.097 245.503 -154.143 245.457 -154.196 245.435ZM-146.545 245.137H-146.538C-146.151 245.137 -145.81 245.388 -145.681 245.753L-144.816 248.188C-144.794 248.264 -144.733 248.325 -144.657 248.348L-137.924 250.645L-137.341 253.277L-157.145 253.149C-157.176 253.149 -157.199 253.126 -157.199 253.095L-157.191 251.938L-155.394 251.954H-155.121L-140.055 252.053C-139.903 252.053 -139.789 251.931 -139.789 251.786C-139.782 251.642 -139.903 251.52 -140.047 251.52L-154.719 251.421C-154.621 251.155 -154.575 250.881 -154.575 250.6C-154.575 250.349 -154.613 250.09 -154.697 249.839C-154.863 249.314 -155.19 248.88 -155.606 248.569C-155.925 248.332 -156.304 248.173 -156.714 248.112C-156.38 247.32 -155.781 246.492 -154.742 246.096C-154.643 246.051 -154.545 246.02 -154.439 245.99C-154.385 246.08 -154.309 246.21 -154.219 246.355C-153.749 247.07 -152.77 248.256 -151.284 248.667C-150.882 248.789 -150.443 248.842 -149.958 248.811C-149.912 248.811 -149.867 248.811 -149.813 248.804C-148.16 248.652 -147.562 246.955 -147.47 246.08V246.051C-147.47 245.83 -147.387 245.625 -147.25 245.464C-147.114 245.305 -146.924 245.191 -146.712 245.153C-146.659 245.145 -146.606 245.137 -146.545 245.137ZM-136.825 251.018C-135.884 251.345 -135.248 252.235 -135.255 253.232L-135.316 253.293L-136.794 253.285L-137.332 250.843L-136.825 251.018ZM-166.396 211.452C-166.578 211.444 -166.752 211.429 -166.935 211.414C-168.671 211.315 -170.347 211.139 -171.962 210.919C-172.136 210.897 -172.318 210.866 -172.492 210.836C-181.432 209.534 -188.56 206.545 -194.163 203.022C-194.322 202.932 -194.474 202.832 -194.633 202.718C-196.233 201.706 -197.696 200.634 -199.046 199.546C-199.198 199.424 -199.357 199.295 -199.508 199.173C-200.76 198.138 -201.905 197.096 -202.943 196.069C-214.999 184.164 -221.285 166.164 -219.344 149.101C-217.471 132.562 -208.183 125.464 -200.722 122.421C-199.713 122.01 -198.735 121.668 -197.802 121.387C-197.401 122.984 -197.075 124.27 -196.946 124.795C-198.068 125.084 -199.175 125.434 -200.229 125.86C-200.267 125.858 -200.305 125.862 -200.342 125.877C-203.271 127.067 -205.275 128.606 -206.515 130.067C-209.4 133.437 -211.503 149.164 -207.396 160.038C-207.295 160.307 -207.193 160.576 -207.084 160.839C-207.048 160.924 -207.009 161.003 -206.973 161.087C-206.866 161.337 -206.758 161.586 -206.645 161.826C-206.42 162.307 -206.183 162.767 -205.937 163.209C-205.884 163.306 -205.835 163.405 -205.779 163.502L-205.772 163.509C-205.725 163.591 -205.671 163.672 -205.622 163.753C-205.542 163.887 -205.461 164.02 -205.378 164.151C-205.347 164.201 -205.318 164.251 -205.286 164.3C-205.21 164.426 -205.125 164.544 -205.041 164.662C-204.97 164.765 -204.901 164.871 -204.829 164.971C-204.772 165.052 -204.714 165.133 -204.657 165.213C-204.521 165.396 -204.384 165.578 -204.24 165.753C-204.081 165.952 -203.914 166.149 -203.74 166.332L-203.724 166.348C-203.59 166.497 -203.453 166.641 -203.315 166.782C-203.281 166.816 -203.251 166.854 -203.216 166.887C-203.153 166.956 -203.084 167.02 -203.015 167.084C-202.633 167.452 -202.236 167.789 -201.824 168.102C-201.79 168.127 -201.756 168.154 -201.723 168.18C-201.683 168.212 -201.639 168.239 -201.599 168.27C-201.432 168.39 -201.264 168.506 -201.092 168.618C-201.04 168.652 -200.987 168.691 -200.934 168.721C-200.904 168.741 -200.872 168.756 -200.842 168.775C-200.655 168.891 -200.466 169.002 -200.273 169.107C-200.158 169.175 -200.043 169.242 -199.926 169.299C-199.835 169.344 -199.751 169.383 -199.66 169.428H-199.66C-199.65 169.433 -199.641 169.436 -199.631 169.441C-199.398 169.549 -199.165 169.653 -198.925 169.748C-198.893 169.761 -198.862 169.77 -198.83 169.782C-198.774 169.804 -198.717 169.824 -198.66 169.845C-198.604 169.866 -198.548 169.889 -198.493 169.907C-198.432 169.93 -198.371 169.953 -198.31 169.968C-198.235 169.999 -198.159 170.021 -198.083 170.044C-198.052 170.056 -198.019 170.062 -197.987 170.072C-197.889 170.102 -197.791 170.131 -197.691 170.159C-197.675 170.164 -197.66 170.169 -197.643 170.174C-197.598 170.189 -197.545 170.204 -197.499 170.219C-197.567 171.064 -197.787 175.917 -193.541 180.314C-187.809 186.256 -176.875 188.523 -161.036 187.062L-159.42 211.497C-161.846 211.589 -164.175 211.573 -166.396 211.452ZM-173.334 239.082C-173.599 240.208 -174.615 241.021 -175.768 241.021C-175.95 241.021 -176.139 240.999 -176.344 240.953C-177.686 240.642 -178.52 239.288 -178.217 237.941L-172.075 211.436C-170.46 211.665 -168.785 211.832 -167.056 211.946L-173.334 239.082ZM-203.057 239.082C-203.323 240.223 -204.323 241.021 -205.499 241.021C-205.665 241.021 -205.863 240.999 -206.067 240.953C-206.719 240.801 -207.273 240.405 -207.622 239.835C-207.978 239.264 -208.092 238.595 -207.933 237.941L-199.182 200.116C-197.833 201.197 -196.362 202.254 -194.762 203.273L-203.057 239.082ZM-199.069 113.893C-198.773 114.159 -198.447 114.365 -198.121 114.502C-198.091 114.517 -198.053 114.524 -198.022 114.524C-197.916 114.524 -197.818 114.464 -197.772 114.358C-197.719 114.22 -197.78 114.069 -197.916 114.007C-198.477 113.772 -198.925 113.36 -199.304 112.889V112.881L-199.311 112.866H-199.327C-199.546 112.577 -199.516 112.57 -199.577 112.509C-200.509 111.017 -200.29 109.77 -199.933 109.413C-198.841 108.157 -195.983 110.85 -196.218 113.064C-196.233 113.208 -196.127 113.338 -195.983 113.353C-195.839 113.369 -195.71 113.262 -195.695 113.118C-195.634 112.516 -195.77 111.831 -196.066 111.17C-196.043 111.094 -196.021 110.356 -196.021 110.28L-194.201 110.188C-194.201 110.371 -194.193 110.562 -194.17 110.744C-193.943 112.524 -192.464 113.688 -190.963 113.49C-189.333 113.277 -188.294 111.634 -188.514 110.013C-188.537 109.861 -188.56 109.725 -188.605 109.58V109.572C-188.294 109.413 -187.976 109.382 -187.627 109.481C-187.627 109.61 -187.619 109.754 -187.597 109.892C-187.361 111.672 -185.883 112.836 -184.389 112.638C-183.942 112.577 -183.525 112.409 -183.161 112.144C-182.41 117.766 -182.395 121.493 -188.036 122.14C-188.18 122.117 -189.636 122.276 -192.646 121.295C-192.79 121.242 -192.935 121.318 -192.988 121.455C-193.033 121.592 -192.965 121.744 -192.828 121.797C-192.722 121.828 -190.357 122.665 -188.226 122.672C-188.211 122.741 -188.074 123.517 -188.059 123.623C-188.067 123.691 -188.347 126.271 -188.37 126.453C-190.303 127.252 -192.487 127.404 -195.027 126.91L-196.195 125.137L-196.385 124.848C-196.392 124.81 -196.407 124.749 -196.43 124.665V124.658C-196.559 124.148 -196.885 122.855 -197.287 121.235C-197.325 121.067 -197.37 120.9 -197.408 120.725C-197.947 118.572 -198.583 115.962 -199.069 113.893ZM-189.5 112.007C-189.879 112.539 -190.425 112.881 -191.031 112.966C-192.351 113.133 -193.473 112.037 -193.647 110.676C-193.738 109.983 -193.579 109.299 -193.208 108.751C-192.836 108.218 -192.305 107.883 -191.699 107.8C-190.455 107.701 -189.25 108.561 -189.037 110.081V110.09C-188.946 110.66 -189.075 111.398 -189.5 112.007ZM-184.67 103.889C-184.419 104.696 -184.192 105.586 -183.995 106.544C-184.374 106.407 -184.776 106.369 -185.193 106.423C-186.474 106.575 -187.384 107.64 -187.589 108.941C-188.006 108.85 -188.4 108.888 -188.779 109.078C-189.31 107.845 -190.546 107.108 -191.767 107.275C-192.525 107.374 -193.192 107.792 -193.64 108.454C-193.882 108.811 -194.057 109.223 -194.133 109.656L-196.013 109.747C-195.99 108.135 -196.096 106.514 -196.589 105.327C-192.95 105.236 -188.173 104.887 -184.67 103.889ZM-182.463 109.223C-182.266 110.66 -183.237 111.961 -184.457 112.106C-185.777 112.273 -186.899 111.193 -187.073 109.823C-187.263 108.393 -186.376 107.108 -185.125 106.947C-183.942 106.75 -182.622 107.8 -182.463 109.223ZM-166.297 124.566L-166.291 124.57L-181.187 123.627H-181.19C-183.253 123.427 -185.855 123.421 -187.551 123.487L-187.695 122.634C-185.693 122.361 -184.298 121.676 -183.419 120.542C-183.335 120.436 -183.259 120.329 -183.199 120.215C-175.7 120.709 -170.316 122.406 -166.297 124.566ZM-162.836 125.323C-162.747 125.316 -162.664 125.29 -162.61 125.221L-151.317 110.737L-151.315 110.744C-151.261 110.889 -151.178 111.033 -151.103 111.147C-151.08 111.193 -151.057 111.231 -151.004 111.307C-150.943 111.398 -150.898 111.459 -150.89 111.466C-150.086 112.471 -149.108 113.255 -147.948 113.841C-147.917 113.855 -147.349 114.228 -146.682 114.32C-146.659 114.327 -146.591 114.327 -146.56 114.327H-146.545C-146.477 114.342 -146.401 114.342 -146.333 114.342C-146.16 114.342 -146.002 114.319 -145.843 114.274C-147.265 117.612 -152.158 128.638 -156.25 132.419L-156.251 132.417C-158.174 130.13 -160.553 127.517 -164.095 125.243L-162.836 125.323ZM-150.928 102.201C-150.898 102.163 -150.875 102.147 -150.822 102.14C-150.018 102.094 -148.57 103.585 -148.282 105.107L-148.278 105.121C-148.278 105.131 -148.28 105.14 -148.278 105.15C-148.275 105.165 -147.974 106.651 -148.278 107.482C-148.328 107.62 -148.257 107.772 -148.12 107.824C-148.09 107.834 -148.059 107.84 -148.028 107.84C-147.92 107.84 -147.819 107.772 -147.779 107.665C-147.47 106.819 -147.672 105.517 -147.739 105.145C-147.411 104.588 -145.72 101.622 -145.931 99.4851C-145.954 99.2868 -145.931 98.8683 -145.779 98.7541C-145.704 98.6935 -145.56 98.7242 -145.499 98.7396C-145.279 98.9679 -144.756 101.014 -144.938 101.684C-144.968 101.828 -144.893 101.964 -144.756 102.011C-144.619 102.049 -144.476 101.98 -144.43 101.843L-144.354 101.623C-144.013 100.656 -143.695 99.7052 -143.649 99.3474C-143.642 99.2714 -143.566 99.1962 -143.505 99.2188C-143.361 99.2188 -143.073 99.4543 -143.012 100.314L-143.01 100.325C-143.093 100.608 -143.443 101.739 -143.977 102.66C-144.05 102.787 -144.008 102.95 -143.881 103.024C-143.839 103.049 -143.793 103.06 -143.748 103.06C-143.656 103.06 -143.567 103.012 -143.518 102.927C-142.943 101.934 -142.582 100.76 -142.499 100.47C-142.304 100.29 -142.124 100.208 -142.018 100.269C-141.837 100.359 -141.783 101.029 -141.859 101.554L-141.867 101.561V101.572C-141.95 101.775 -142.499 103.11 -142.966 103.839C-143.045 103.964 -143.01 104.127 -142.886 104.207C-142.842 104.236 -142.792 104.25 -142.743 104.25C-142.656 104.25 -142.57 104.206 -142.519 104.127C-142.005 103.324 -141.425 101.896 -141.366 101.751C-141.247 101.6 -141.113 101.571 -140.911 101.661C-140.57 101.828 -140.518 102.908 -141.511 105.434C-141.7 105.897 -141.928 106.339 -142.185 106.743C-142.852 107.754 -144.498 110.204 -145.476 111.01C-145.507 111.033 -145.529 111.063 -145.545 111.094C-145.605 111.223 -145.674 111.352 -145.726 111.475C-145.954 111.216 -146.212 110.949 -146.515 110.683C-147.865 109.436 -149.291 109.147 -150.246 109.313C-150.109 108.5 -150.018 107.511 -150.185 106.819C-150.238 106.582 -150.313 106.309 -150.397 106.004C-150.723 104.771 -151.277 102.703 -150.928 102.201ZM-165.229 125.171C-161.257 127.527 -158.696 130.336 -156.651 132.768C-156.892 132.965 -157.132 133.141 -157.365 133.279C-158.198 133.77 -163.285 133.684 -167.438 133.472C-170.445 129.542 -174.066 125.88 -177.853 124.373L-165.229 125.171ZM-169.111 163.836C-169.528 163.707 -169.937 163.639 -170.301 163.631L-174.009 163.167C-173.986 162.718 -174.1 162.345 -174.32 162.086C-174.456 161.927 -174.631 161.82 -174.835 161.768C-174.866 161.737 -174.904 161.706 -174.957 161.691L-198.371 154.479V150.622C-198.371 150.477 -198.493 150.356 -198.637 150.356C-198.781 150.356 -198.902 150.477 -198.902 150.622V154.312L-200.828 153.718C-200.964 153.68 -201.116 153.756 -201.154 153.893C-201.199 154.038 -201.124 154.182 -200.979 154.228L-176.2 161.866C-177.762 162.376 -179.483 164.027 -180.477 165.54C-181.417 166.993 -181.167 168.385 -180.643 169.222C-180.621 169.26 -180.59 169.299 -180.568 169.337H-193.7C-194.186 169.337 -194.618 169.565 -194.891 169.914C-194.942 169.973 -194.986 170.033 -195.023 170.099C-195.284 170.077 -195.544 170.052 -195.799 170.017L-195.823 170.014H-195.826C-195.906 170.002 -195.983 169.984 -196.062 169.972C-196.239 169.943 -196.415 169.914 -196.589 169.876C-196.8 169.837 -197.006 169.784 -197.211 169.733C-197.32 169.706 -197.431 169.68 -197.538 169.65C-197.653 169.616 -197.768 169.581 -197.883 169.547C-198.059 169.491 -198.233 169.432 -198.404 169.369C-198.527 169.324 -198.65 169.278 -198.771 169.228C-198.935 169.162 -199.098 169.092 -199.258 169.019C-199.371 168.968 -199.483 168.915 -199.594 168.86C-199.712 168.802 -199.827 168.739 -199.942 168.677C-200.099 168.592 -200.257 168.508 -200.41 168.415C-200.473 168.377 -200.534 168.337 -200.596 168.298C-200.779 168.185 -200.959 168.07 -201.138 167.945C-201.148 167.938 -201.158 167.93 -201.168 167.923C-201.385 167.77 -201.596 167.61 -201.798 167.45L-201.806 167.443C-201.927 167.346 -202.043 167.24 -202.16 167.137C-202.265 167.046 -202.372 166.959 -202.474 166.864C-202.576 166.77 -202.672 166.67 -202.77 166.571C-202.871 166.472 -202.971 166.373 -203.07 166.269C-203.103 166.234 -203.138 166.201 -203.171 166.164C-203.261 166.069 -203.345 165.969 -203.43 165.872C-203.531 165.757 -203.632 165.642 -203.731 165.522C-203.812 165.426 -203.891 165.327 -203.97 165.225C-204.102 165.057 -204.232 164.884 -204.359 164.708C-204.367 164.696 -204.376 164.685 -204.384 164.673C-204.484 164.534 -204.582 164.388 -204.679 164.243C-204.741 164.152 -204.801 164.059 -204.861 163.966C-204.974 163.796 -205.083 163.622 -205.187 163.443C-205.263 163.317 -205.336 163.188 -205.41 163.057C-205.473 162.947 -205.537 162.837 -205.597 162.726C-205.619 162.685 -205.641 162.645 -205.663 162.605C-205.787 162.373 -205.907 162.134 -206.024 161.892C-206.053 161.831 -206.085 161.774 -206.113 161.714C-206.28 161.364 -206.439 161.007 -206.591 160.633C-211.048 149.909 -209.002 133.793 -206.107 130.412C-203.794 127.711 -200.193 126.175 -196.741 125.267L-189.409 136.419C-189.356 136.495 -189.272 136.541 -189.181 136.541C-189.166 136.541 -189.143 136.533 -189.121 136.533C-189.014 136.502 -188.931 136.412 -188.923 136.305L-187.862 126.674V126.652L-187.566 124.004C-185.956 123.943 -183.269 123.959 -181.239 124.154L-181.221 124.159L-181.108 124.166C-180.458 124.233 -179.878 124.314 -179.43 124.422C-175.429 125.395 -171.472 129.211 -168.183 133.432C-168.607 133.407 -169.022 133.383 -169.412 133.357C-169.558 133.356 -169.685 133.459 -169.694 133.606C-169.704 133.752 -169.593 133.879 -169.447 133.889C-169.213 133.905 -168.591 133.943 -167.751 133.988C-164.636 138.088 -162.157 142.46 -160.869 144.879C-161.377 145.053 -161.779 145.472 -161.946 146.012L-167.624 164.513L-169.111 163.836ZM-169.08 169.261L-169.095 169.291L-169.111 169.337H-171.226L-176.185 167.663L-176.45 167.572L-176.519 167.549C-176.617 167.519 -176.723 167.549 -176.792 167.617V167.625C-176.814 167.655 -176.837 167.686 -176.852 167.716C-176.898 167.838 -176.852 167.967 -176.746 168.029C-176.731 168.043 -176.708 168.051 -176.685 168.058L-176.488 168.127L-172.894 169.337H-179.65C-179.711 169.291 -180.082 169.063 -180.128 169.032C-180.234 168.888 -180.348 168.667 -180.371 168.598L-180.386 168.568C-180.712 167.747 -180.651 166.773 -180.037 165.837C-179.438 164.932 -178.566 163.951 -177.618 163.25C-177.542 163.259 -170.339 164.156 -170.339 164.156C-169.998 164.171 -169.634 164.232 -169.3 164.331L-167.776 165.023L-169.08 169.261ZM-156.304 133.178C-156.16 133.353 -156.016 133.52 -155.879 133.688C-155.023 134.707 -154.219 135.674 -153.423 136.48C-151.846 138.055 -149.662 141.174 -147.372 144.764H-160.315C-161.543 142.422 -163.938 138.133 -167.008 134.026C-165.479 134.1 -163.487 134.174 -161.675 134.174C-159.54 134.174 -157.66 134.07 -157.096 133.738C-156.837 133.586 -156.575 133.39 -156.308 133.173L-156.304 133.178ZM153.347 106.819H97.5856V81.7899H113.039C122.411 81.7899 130.638 74.1973 131.381 64.871C131.744 60.2685 130.274 55.9088 127.233 52.6071C124.533 49.6714 120.849 47.8905 116.83 47.5562C116.588 43.9049 115.154 40.5805 112.675 37.9247C109.672 34.7072 105.517 32.9272 100.983 32.9272C100.687 32.9272 100.368 32.9417 100.012 32.9798C99.6486 32.0522 99.2612 31.1844 98.8143 30.3176C93.7639 20.3744 83.5736 14.2048 72.2222 14.2048C71.2219 14.2048 70.2287 14.2737 69.2347 14.3724C68.2263 14.2737 67.2178 14.2048 66.1949 14.2048C53.7366 14.2048 41.8399 21.561 35.8424 32.9571C35.4253 32.9272 35.0235 32.9272 34.6669 32.9272C21.3365 32.9272 9.61409 43.8813 8.54514 57.3391C8.05219 63.5313 9.94092 69.4354 13.8457 73.9691C18.061 78.9366 24.3547 81.7899 31.1106 81.7899H39.5494V106.811H-12.481C-12.6327 106.811 -12.7464 106.933 -12.7464 107.077V238.055C-14.8762 238.58 -16.8327 239.539 -18.4632 241.144C-18.9562 241.638 -19.441 242.201 -19.9114 242.742C-21.3749 244.445 -22.7697 246.035 -24.7488 245.99C-27.2812 245.914 -28.677 243.031 -29.0408 242.147C-29.2982 241.54 -29.5184 240.885 -29.7306 240.261C-30.201 238.869 -30.6858 237.431 -31.5959 236.237C-33.9767 233.133 -38.5035 232.76 -41.6959 233.727C-45.1077 234.769 -47.9508 237.066 -50.6963 239.295L-50.8552 239.424C-53.8652 241.858 -56.6252 243.944 -59.9467 244.765C-65.4062 246.111 -70.9559 243.548 -74.6485 241.159C-78.0233 238.975 -80.7526 236.496 -82.7623 233.772C-88.7752 225.662 -89.2303 214.966 -88.8357 204.62C-88.7978 203.638 -88.7518 202.657 -88.7138 201.668C-88.3121 192.418 -87.895 182.855 -91.5045 174.32C-94.5299 167.161 -100.353 161.212 -107.488 157.994C-114.525 154.822 -122.835 154.343 -130.266 156.686L-126.998 146.027C-126.907 145.731 -126.96 145.411 -127.149 145.16C-127.332 144.909 -127.62 144.764 -127.93 144.764H-146.735C-149.101 141.03 -151.391 137.758 -153.044 136.099C-153.825 135.316 -154.628 134.357 -155.47 133.346C-155.614 133.178 -155.758 133.003 -155.902 132.828L-155.907 132.823C-151.174 128.463 -145.631 115.178 -144.996 113.63L-144.991 113.62L-144.989 113.614C-144.968 113.562 -144.952 113.524 -144.943 113.503C-144.94 113.494 -144.945 113.484 -144.943 113.475L-144.938 113.46C-144.93 113.445 -144.923 113.437 -144.923 113.422V113.399C-144.84 112.988 -144.991 112.494 -145.37 111.946C-145.286 111.764 -145.195 111.573 -145.097 111.383C-144.097 110.538 -142.573 108.301 -141.746 107.032C-141.465 106.598 -141.223 106.126 -141.018 105.632C-140.001 103.053 -139.888 101.554 -140.692 101.181C-140.904 101.082 -141.109 101.059 -141.299 101.098C-141.291 100.618 -141.366 100.002 -141.783 99.7895C-141.958 99.7052 -142.208 99.66 -142.535 99.842C-142.739 98.8003 -143.3 98.6935 -143.49 98.6862C-143.838 98.7007 -144.126 98.929 -144.18 99.2795C-144.195 99.4616 -144.331 99.9027 -144.476 100.352C-144.627 99.409 -144.938 98.3891 -145.264 98.2677C-145.688 98.1083 -145.962 98.2143 -146.113 98.3356C-146.545 98.6708 -146.469 99.4616 -146.455 99.5458C-146.303 101.151 -147.379 103.38 -147.925 104.406C-148.441 102.976 -149.775 101.508 -150.875 101.607C-151.08 101.63 -151.246 101.729 -151.368 101.896C-151.815 102.55 -151.444 104.133 -150.905 106.149C-150.829 106.445 -150.753 106.712 -150.701 106.947C-150.572 107.48 -150.602 108.34 -150.806 109.465C-151.057 109.58 -151.239 109.725 -151.33 109.884L-151.345 109.907L-151.347 109.91L-162.941 124.782L-165.052 124.649L-165.061 124.642C-169.194 122.216 -174.82 120.276 -182.903 119.698C-181.94 117.689 -182.251 114.89 -182.691 111.71C-182.137 111.094 -181.811 110.15 -181.94 109.154C-182.001 108.659 -182.168 108.211 -182.418 107.822C-182.372 107.526 -182.236 106.94 -182.236 105.852C-182.236 104.97 -182.342 104.019 -182.547 103.121C-179.923 101.927 -179.226 99.6364 -180.173 97.4153C-181.091 95.2858 -183.676 93.3989 -187.21 94.2812C-191.691 95.3999 -193.481 94.9126 -195.058 94.4796C-195.588 94.3346 -196.089 94.1897 -196.673 94.1136C-198.5 93.8627 -200.737 94.9968 -202.367 96.9968C-204.642 99.7813 -205.203 103.54 -203.906 107.298C-202.754 110.645 -201.397 112.57 -199.865 113.026C-199.85 113.056 -199.827 113.087 -199.797 113.118V113.125C-199.289 115.308 -198.538 118.39 -197.924 120.87C-198.872 121.151 -199.88 121.501 -200.919 121.927C-208.516 125.023 -217.972 132.242 -219.875 149.04C-221.831 166.263 -215.485 184.429 -203.315 196.45C-202.208 197.546 -200.979 198.656 -199.637 199.744L-208.456 237.819C-208.638 238.61 -208.501 239.424 -208.077 240.117C-207.644 240.809 -206.977 241.289 -206.189 241.478H-206.181C-205.938 241.531 -205.711 241.554 -205.499 241.554C-204.073 241.554 -202.86 240.588 -202.541 239.196L-194.292 203.57C-188.666 207.085 -181.531 210.052 -172.606 211.36L-178.733 237.819C-179.104 239.454 -178.088 241.09 -176.458 241.478C-176.215 241.531 -175.988 241.554 -175.768 241.554C-174.35 241.554 -173.137 240.588 -172.818 239.196L-166.518 211.976C-165.19 212.052 -163.818 212.09 -162.415 212.09C-161.422 212.09 -160.414 212.068 -159.382 212.03L-157.509 240.353C-157.426 241.6 -156.38 242.581 -155.121 242.581H-154.666L-154.727 245.525C-156.19 246.005 -156.933 247.184 -157.32 248.226C-157.328 248.242 -157.328 248.249 -157.335 248.264C-157.6 248.994 -157.676 249.648 -157.699 249.953C-157.714 250.052 -157.714 250.113 -157.714 250.12L-157.722 251.665V251.672V251.68L-157.729 253.095C-157.737 253.415 -157.471 253.681 -157.153 253.681L-135.316 253.825H-135.308C-135.157 253.825 -135.012 253.765 -134.898 253.65C-134.793 253.543 -134.724 253.399 -134.724 253.239C-134.717 252.007 -135.498 250.911 -136.658 250.516L-144.362 247.884L-145.181 245.571C-145.378 245.001 -145.924 244.605 -146.538 244.605H-146.545C-146.598 244.605 -146.652 244.605 -146.697 244.62L-146.659 242.581H-145.893C-145.006 242.581 -144.195 242.095 -143.8 241.326C-143.671 241.121 -143.581 240.87 -143.528 240.565C-142.587 234.556 -140.646 221.326 -139.767 208.789C-138.978 208.531 -138.22 208.249 -137.492 207.96C-134.543 221.767 -133.784 235.324 -133.602 240.284C-133.557 241.578 -132.51 242.589 -131.221 242.589H-130.342L-130.402 245.525C-131.866 246.005 -132.609 247.184 -132.995 248.226C-133.003 248.242 -133.003 248.249 -133.011 248.264C-133.359 249.238 -133.383 250.082 -133.39 250.12L-133.412 253.095C-133.412 253.415 -133.147 253.681 -132.829 253.681L-110.991 253.825C-110.832 253.825 -110.688 253.765 -110.574 253.65C-110.469 253.543 -110.407 253.399 -110.4 253.239C-110.393 252.007 -111.174 250.911 -112.334 250.516L-120.037 247.884L-120.856 245.571C-121.061 245.001 -121.607 244.605 -122.214 244.605H-122.221C-122.274 244.605 -122.327 244.605 -122.381 244.62L-122.342 242.604H-121.75C-121.083 242.604 -120.469 242.338 -120.007 241.851C-119.559 241.372 -119.325 240.741 -119.362 240.078C-119.628 235.37 -121.986 193.817 -122.493 184.392C-122.782 179.082 -126.043 175.567 -129.128 173.406C-130.607 170.751 -132.147 168.462 -133.367 166.773L-130.402 157.112C-130.334 157.188 -130.228 157.218 -130.122 157.188C-122.805 154.882 -114.639 155.354 -107.709 158.48C-100.694 161.645 -94.9624 167.496 -91.9902 174.532C-88.434 182.954 -88.843 192.456 -89.2447 201.645C-89.2826 202.635 -89.3287 203.616 -89.3666 204.597C-89.7684 215.042 -89.298 225.845 -83.1939 234.092C-81.139 236.861 -78.3646 239.394 -74.9375 241.607C-71.1609 244.05 -65.4667 246.675 -59.8249 245.282C-56.3977 244.437 -53.5845 242.315 -50.522 239.835L-50.3622 239.706C-47.6555 237.515 -44.8577 235.248 -41.5442 234.236C-38.5107 233.323 -34.2421 233.658 -32.0202 236.557C-31.1562 237.682 -30.7084 239.021 -30.2308 240.428C-30.0114 241.068 -29.7911 241.722 -29.5338 242.353C-28.4721 244.902 -26.6899 246.461 -24.7713 246.522H-24.6431C-22.4664 246.522 -20.965 244.78 -19.5096 243.091C-19.0474 242.551 -18.5697 242.003 -18.0912 241.524C-16.5754 240.033 -14.748 239.12 -12.7464 238.61V240.801C-12.7464 240.945 -12.6327 241.068 -12.481 241.068H-10.4713V248.553C-10.4713 248.698 -10.3576 248.82 -10.2059 248.82H151.489C151.641 248.82 151.755 248.698 151.755 248.553V241.06H153.347C153.498 241.06 153.612 240.945 153.612 240.794V107.085C153.612 106.933 153.498 106.819 153.347 106.819Z" fill="#3C4150"/>
</g>
<defs>
<clipPath id="clip0_557_39422">
<rect width="138.56" height="100.018" fill="white" transform="translate(0.0637207 0.430664)"/>
</clipPath>
</defs>
</svg>
