<svg width="20" height="20" viewBox="0 0 20 20" fill="none" xmlns="http://www.w3.org/2000/svg">
<path fill-rule="evenodd" clip-rule="evenodd" d="M3.45225 15.8333H16.5473C17.5357 15.8333 18.3332 15.0518 18.3332 14.0832V5.91675C18.3332 4.9482 17.5357 4.16666 16.5473 4.16666H3.45225C2.46409 4.16666 1.6665 4.9482 1.6665 5.91675V14.0832C1.6665 15.0518 2.46409 15.8333 3.45225 15.8333ZM2.857 5.91675C2.857 5.59009 3.11892 5.33364 3.45225 5.33364H16.5473C16.8807 5.33364 17.1423 5.59009 17.1423 5.91675V14.0832C17.1423 14.4099 16.8807 14.6663 16.5473 14.6663H3.45225C3.11892 14.6663 2.857 14.4099 2.857 14.0832V5.91675ZM5.47609 11.3181V8.43693C5.47609 8.2736 5.42842 8.15682 5.357 8.07516C5.28558 7.99349 5.19034 7.95837 5.05942 7.95837C4.92842 7.95837 4.83317 7.99349 4.76176 8.07516C4.69034 8.15682 4.65467 8.2736 4.65467 8.43693V11.4814C4.65467 11.6562 4.69034 11.7729 4.77367 11.8546C4.84509 11.9363 4.97609 11.9714 5.15467 11.9714H7.13083C7.27367 11.9714 7.36892 11.9363 7.44033 11.8783C7.51175 11.8195 7.5475 11.7378 7.5475 11.6447C7.5475 11.5516 7.51175 11.47 7.44033 11.4112C7.36892 11.3532 7.26175 11.3181 7.13083 11.3181H5.47609ZM10.6665 8.20336C10.357 8.04003 9.99984 7.95837 9.58317 7.95837C9.27367 7.95837 9.01175 8.00491 8.76175 8.09801C8.51175 8.19193 8.30942 8.33157 8.14275 8.50634C7.96417 8.68192 7.83317 8.8918 7.74984 9.14823C7.66651 9.40466 7.61892 9.6962 7.61892 9.98856C7.61892 10.2801 7.66651 10.5602 7.74984 10.8166C7.83317 11.0731 7.96417 11.2829 8.13084 11.47C8.2975 11.6447 8.49984 11.7852 8.74984 11.8897C8.99984 11.9951 9.27367 12.0416 9.59508 12.0416C9.9165 12.0416 10.1903 11.9951 10.4403 11.9012C10.6784 11.8081 10.8928 11.6684 11.0594 11.4814C11.2261 11.2952 11.357 11.0731 11.4403 10.8281C11.5237 10.5831 11.5712 10.303 11.5712 10C11.5712 9.58024 11.4998 9.21846 11.3451 8.91466C11.1903 8.61169 10.9642 8.36669 10.6665 8.20336ZM10.607 9.2299C10.7023 9.45121 10.7498 9.6962 10.7498 9.98856L10.7618 10C10.7618 10.3152 10.7142 10.5717 10.607 10.793C10.4998 11.0151 10.357 11.1662 10.1903 11.2715C10.0237 11.3769 9.83317 11.4234 9.61892 11.4234C9.45225 11.4234 9.2975 11.3883 9.1665 11.3295C9.02367 11.2715 8.90458 11.1784 8.7975 11.0616C8.69033 10.9449 8.607 10.7929 8.5475 10.6068C8.48792 10.4312 8.46417 10.2213 8.46417 10C8.46417 9.77787 8.48792 9.56798 8.5475 9.39322C8.607 9.20621 8.69034 9.06656 8.78559 8.94978C8.88084 8.833 8.99983 8.7399 9.14275 8.68191C9.28558 8.62312 9.42842 8.58801 9.59508 8.58801C9.82125 8.58801 10.0237 8.64682 10.2023 8.75135C10.3808 8.8567 10.5118 9.02002 10.607 9.2299ZM15.3332 10.793V10.8158C15.3307 10.6288 15.2948 10.4728 15.2257 10.3381C15.1548 10.1984 15.059 10.0931 14.9282 10C14.7973 9.9069 14.6423 9.82523 14.4523 9.76643C14.2615 9.69701 14.059 9.63822 13.8332 9.59167C13.6548 9.54512 13.524 9.51001 13.4407 9.48633C13.3573 9.46346 13.274 9.43977 13.2023 9.39322C13.1307 9.34667 13.0715 9.30012 13.024 9.24132C12.9757 9.18334 12.9523 9.11311 12.9523 9.03145C12.9523 8.90323 13.0115 8.79871 13.1423 8.70479C13.274 8.61169 13.4407 8.56513 13.6548 8.56513C13.8923 8.56513 14.0473 8.61169 14.1548 8.69335C14.2498 8.77502 14.3448 8.89179 14.4165 9.04368C14.4757 9.14822 14.524 9.21847 14.5715 9.26502C14.619 9.31157 14.6907 9.33525 14.7857 9.33525C14.8923 9.33525 14.9757 9.30013 15.0473 9.21846C15.119 9.14823 15.1548 9.05514 15.1548 8.96204C15.1548 8.85669 15.1307 8.73989 15.0715 8.63536C15.0115 8.53001 14.9282 8.42467 14.809 8.32014C14.6907 8.2148 14.5357 8.13314 14.3573 8.07516C14.1782 8.01636 13.964 7.98205 13.714 7.98205C13.4048 7.98205 13.1307 8.02859 12.9048 8.12169C12.6782 8.20335 12.4998 8.33157 12.3807 8.50634C12.2615 8.68192 12.2023 8.86811 12.2023 9.09024C12.2023 9.31155 12.2615 9.51001 12.3807 9.6619C12.4998 9.81298 12.6548 9.92976 12.8448 10.0237C13.0357 10.1168 13.2857 10.187 13.5715 10.2564C13.7973 10.303 13.964 10.3503 14.0948 10.3969C14.2257 10.4434 14.3332 10.5014 14.4165 10.5831C14.4998 10.6647 14.5357 10.7701 14.5357 10.8983C14.5357 11.0616 14.464 11.2013 14.309 11.3066C14.1548 11.412 13.9523 11.47 13.714 11.47C13.5357 11.47 13.3923 11.4463 13.2857 11.3883C13.1782 11.3303 13.0948 11.2601 13.0357 11.1784C12.9757 11.0968 12.9165 10.9914 12.869 10.8632C12.8215 10.7587 12.774 10.677 12.714 10.6182C12.6548 10.5602 12.5832 10.5365 12.4998 10.5365C12.3923 10.5365 12.309 10.5716 12.2382 10.6419C12.1665 10.7113 12.1307 10.793 12.1307 10.8869C12.1307 11.0502 12.1782 11.225 12.2973 11.3997C12.4165 11.5753 12.5715 11.715 12.7498 11.8203C13.0115 11.9714 13.3448 12.0416 13.7382 12.0416C14.0715 12.0416 14.3573 11.9836 14.5948 11.8783C14.8332 11.7729 15.0115 11.6219 15.1423 11.4348C15.2698 11.2544 15.3298 11.051 15.3332 10.8158V10.8403V10.793Z" fill="#767888"/>
</svg>
