<svg width="19" height="19" viewBox="0 0 19 19" fill="none" xmlns="http://www.w3.org/2000/svg">
<path fill-rule="evenodd" clip-rule="evenodd" d="M2.96875 15.4375H16.0312C17.0169 15.4375 17.8125 14.6419 17.8125 13.6562V5.34375C17.8125 4.35814 17.0169 3.5625 16.0312 3.5625H2.96875C1.98317 3.5625 1.1875 4.35814 1.1875 5.34375V13.6562C1.1875 14.6419 1.98317 15.4375 2.96875 15.4375ZM2.375 5.34375C2.375 5.01125 2.63621 4.75 2.96875 4.75H16.0312C16.3638 4.75 16.625 5.01125 16.625 5.34375V13.6562C16.625 13.9888 16.3638 14.25 16.0312 14.25H2.96875C2.63621 14.25 2.375 13.9888 2.375 13.6562V5.34375ZM15.0574 8.0394C14.9863 7.96815 14.8911 7.92064 14.7844 7.92064C14.6775 7.92064 14.5824 7.95626 14.5113 8.0394C14.4399 8.11065 14.4044 8.21751 14.4044 8.36001V9.09625H13.3238V8.36001C13.3238 8.21751 13.288 8.11065 13.2169 8.0394C13.0744 7.88501 12.7893 7.88501 12.6586 8.0394C12.6281 8.06999 12.6063 8.10713 12.5914 8.15083C12.5715 8.20896 12.5637 8.27869 12.5637 8.36001V10.6163C12.5637 10.7588 12.5994 10.8656 12.6586 10.9369C12.8011 11.0913 13.0625 11.0913 13.205 10.9369C13.2761 10.8656 13.3119 10.7469 13.3119 10.6163V9.73751H14.3925V10.6163C14.3925 10.7588 14.428 10.8656 14.4875 10.9369C14.5587 11.02 14.6538 11.0557 14.7605 11.0557C14.8674 11.0557 14.9625 11.02 15.0336 10.9369C15.105 10.8656 15.1406 10.7588 15.1406 10.6044V8.34813C15.1406 8.20563 15.105 8.09876 15.0336 8.02751L15.0574 8.0394ZM8.60938 8.52627C8.59387 8.48478 8.58053 8.44782 8.5685 8.41441C8.55284 8.37132 8.5395 8.3341 8.52617 8.30065C8.50239 8.24129 8.46688 8.18189 8.43123 8.12254C8.39557 8.06317 8.33613 8.01566 8.27684 7.98004C8.14624 7.90879 7.92053 7.8969 7.78993 7.98004C7.71875 8.01566 7.6712 8.06317 7.62365 8.12254C7.58799 8.18189 7.55249 8.24129 7.51683 8.32442L6.70926 10.3788C6.69389 10.4148 6.68288 10.4463 6.67345 10.4734L6.67301 10.4752C6.66084 10.5098 6.65127 10.537 6.63809 10.5569C6.6262 10.6044 6.61432 10.6519 6.61432 10.7113C6.61432 10.8063 6.64998 10.8894 6.72114 10.9606C6.79246 11.0319 6.87553 11.0675 6.97062 11.0675C7.11311 11.0675 7.19618 11.0081 7.23184 10.9606C7.27938 10.9013 7.32678 10.8063 7.38621 10.6519L7.50494 10.3431H8.54994L8.66867 10.6519C8.66867 10.6519 8.67215 10.6613 8.67808 10.6759C8.68388 10.6903 8.692 10.7097 8.70142 10.7305C8.70606 10.7409 8.71113 10.7516 8.71636 10.7623L8.72404 10.7777C8.72925 10.7877 8.73462 10.7974 8.73999 10.8063C8.75188 10.842 8.7668 10.8717 8.78159 10.8955C8.79637 10.9192 8.81115 10.9369 8.82304 10.9488C8.84116 10.9669 8.85928 10.9851 8.87741 11.0017C8.88624 11.0097 8.89509 11.0174 8.90393 11.0246C8.91263 11.0316 8.92133 11.038 8.92988 11.0438C8.97743 11.0675 9.02498 11.0794 9.08426 11.0794C9.19124 11.0794 9.2743 11.0438 9.34562 10.9725C9.41679 10.9013 9.45245 10.8181 9.45245 10.7232C9.45245 10.6519 9.41679 10.545 9.3575 10.3788L8.60938 8.52627ZM7.71875 9.72566L8.01562 8.8944L8.3125 9.72566H7.71875ZM5.795 8.0394C5.73558 8.11065 5.70006 8.21751 5.70006 8.34816V9.76129L4.75 8.32442L4.65505 8.18189C4.65505 8.18189 4.59563 8.08691 4.55996 8.05129C4.53692 8.02827 4.51401 8.01019 4.48776 7.99392C4.47342 7.98496 4.45805 7.97656 4.44124 7.96815C4.32251 7.92064 4.16814 7.92064 4.03752 8.00377C3.96621 8.05129 3.90692 8.11065 3.88315 8.19377C3.85938 8.25314 3.84749 8.33627 3.84749 8.44315V10.6519C3.84749 10.7825 3.88315 10.8894 3.94244 10.9606C4.07304 11.1032 4.3344 11.115 4.46501 10.9606C4.53619 10.8894 4.55996 10.7825 4.55996 10.6519V9.27441L5.48625 10.6994C5.48625 10.6994 5.50669 10.7321 5.53075 10.7663C5.53654 10.7747 5.54263 10.7831 5.54872 10.7912C5.56031 10.8064 5.57162 10.8204 5.58119 10.83C5.59569 10.8494 5.61019 10.8687 5.62554 10.8873L5.63598 10.8996C5.64163 10.9061 5.6473 10.9124 5.65324 10.9186C5.66774 10.9338 5.68324 10.948 5.70006 10.9606C5.72456 10.9791 5.7492 10.9975 5.77384 11.0143L5.79689 11.0296C5.81211 11.0393 5.82734 11.0481 5.84255 11.0557C5.88995 11.0794 5.94939 11.0794 6.00868 11.0794C6.16305 11.0794 6.41252 11.02 6.41252 10.6163V8.36005C6.41252 8.29206 6.40282 8.23049 6.38528 8.17708C6.36904 8.12782 6.34599 8.08546 6.31744 8.05129C6.18683 7.8969 5.92561 7.8969 5.795 8.05129V8.0394ZM11.6255 9.79688C11.685 9.72563 11.768 9.69 11.875 9.69L11.8512 9.70189C11.9461 9.70189 12.0294 9.73751 12.0886 9.79688C12.1095 9.81424 12.1273 9.83358 12.1422 9.85468C12.1596 9.87979 12.1729 9.90734 12.1817 9.93687C12.1855 9.94937 12.1885 9.96223 12.1909 9.97543C12.1941 9.99445 12.1956 10.0142 12.1956 10.0344C12.1956 10.0835 12.1908 10.1326 12.1805 10.1828C12.1766 10.2025 12.172 10.2224 12.1665 10.2426C12.1555 10.2828 12.1415 10.3241 12.1244 10.3669C12.0768 10.4856 12.0056 10.6044 11.8988 10.7113C11.7918 10.83 11.6611 10.9131 11.4949 10.9844C11.3405 11.0556 11.1506 11.0913 10.9369 11.0913C10.7825 11.0913 10.64 11.0675 10.5094 11.0438C10.4309 11.0307 10.3598 11.0068 10.2936 10.9781C10.2731 10.9692 10.2531 10.9598 10.2335 10.9501C10.2016 10.9343 10.1709 10.9178 10.1412 10.9013C10.0343 10.83 9.93937 10.7469 9.84428 10.64C9.7731 10.545 9.70178 10.4381 9.6425 10.3194C9.61177 10.2578 9.58422 10.1932 9.56146 10.1269C9.5403 10.0653 9.52333 10.0023 9.51189 9.93941C9.47623 9.82065 9.46434 9.67815 9.46434 9.52377C9.46434 9.28626 9.5 9.06062 9.57118 8.87062C9.6425 8.68062 9.74933 8.51439 9.87994 8.3719C9.98214 8.26046 10.1061 8.17077 10.2405 8.10289C10.2778 8.08398 10.3161 8.06676 10.355 8.05125C10.7586 7.88501 11.2456 7.90875 11.59 8.08687C11.7918 8.18189 11.9343 8.3125 12.0413 8.45504C12.1481 8.60937 12.2075 8.75191 12.2075 8.8944C12.2075 8.98939 12.1719 9.06063 12.1125 9.13188C11.9819 9.26252 11.7563 9.25064 11.6493 9.15565C11.6019 9.12002 11.5544 9.04879 11.5068 8.95376C11.4356 8.82315 11.3643 8.72814 11.2694 8.66877C11.1743 8.60938 11.0674 8.57375 10.9369 8.57375C10.7231 8.57375 10.5569 8.65689 10.438 8.81126C10.3074 8.96565 10.2481 9.21501 10.2481 9.52377C10.2481 9.73751 10.2719 9.91564 10.3312 10.0463C10.3653 10.1212 10.4072 10.1883 10.4547 10.2432C10.4899 10.2839 10.5282 10.3178 10.5688 10.3431C10.6756 10.4025 10.7825 10.4381 10.925 10.4381C11.0674 10.4381 11.198 10.4025 11.2931 10.3313C11.3881 10.26 11.4711 10.1531 11.5187 10.0106C11.5323 9.96318 11.5499 9.91954 11.5711 9.87982C11.5788 9.86555 11.5869 9.85177 11.5955 9.83847C11.605 9.82402 11.6149 9.81014 11.6255 9.79688Z" fill="#161719"/>
</svg>
