<svg width="20" height="20" viewBox="0 0 20 20" fill="none" xmlns="http://www.w3.org/2000/svg">
<path fill-rule="evenodd" clip-rule="evenodd" d="M10.0043 10.5942C9.73098 10.5942 9.46932 10.5342 9.20682 10.4275L2.40848 7.28332C2.18181 7.16499 2.00348 7.01 1.88432 6.8075C1.75348 6.605 1.69348 6.36665 1.69348 6.14082C1.69348 5.91415 1.75348 5.68834 1.87264 5.48584C2.00348 5.28334 2.18181 5.11667 2.38431 5.02167L9.19514 1.8425C9.73098 1.60416 10.2901 1.61584 10.8026 1.83001L17.601 4.98583C17.8276 5.0925 17.9943 5.25917 18.1251 5.45C18.256 5.66417 18.316 5.89083 18.316 6.11666C18.316 6.34333 18.256 6.56917 18.1368 6.77167C18.006 6.97417 17.8276 7.14084 17.6251 7.23584L10.8143 10.415C10.8143 10.415 10.8026 10.415 10.8026 10.4275C10.5401 10.5342 10.2785 10.5942 10.0043 10.5942ZM10.0043 2.85415C9.89765 2.85415 9.79014 2.87832 9.68348 2.92582L2.90849 6.08083L9.69515 9.33166C9.87348 9.40333 10.1118 9.415 10.326 9.33166L17.101 6.17665L10.3143 2.92582C10.2193 2.87832 10.1118 2.85415 10.0043 2.85415ZM9.98098 14.4633C9.73098 14.4633 9.46932 14.4042 9.24265 14.3092L2.01515 10.9633C1.71765 10.82 1.58682 10.4625 1.71765 10.165C1.86015 9.8675 2.21765 9.73667 2.51515 9.87917L9.74264 13.225C9.88598 13.2967 10.076 13.2967 10.231 13.225L17.4943 9.87917C17.7918 9.73667 18.1493 9.86751 18.2802 10.1775C18.4227 10.475 18.2918 10.8317 17.9826 10.9633L10.7193 14.3092C10.4927 14.4158 10.231 14.4633 9.98098 14.4633ZM9.24265 18.1783C9.46848 18.2742 9.73098 18.3333 9.98098 18.3333C10.231 18.3333 10.4927 18.2858 10.7193 18.1908L17.9826 14.845C18.2918 14.7133 18.4227 14.3567 18.2802 14.0592C18.1493 13.7492 17.7918 13.63 17.4943 13.7608L10.231 17.1067C10.076 17.1783 9.88598 17.1783 9.74264 17.1067L2.51515 13.7608C2.21765 13.6183 1.87264 13.7492 1.72931 14.0467C1.58681 14.3442 1.71765 14.69 2.01515 14.8325L9.24265 18.1783Z" fill="#767888"/>
</svg>
