<svg width="20" height="20" viewBox="0 0 20 20" fill="none" xmlns="http://www.w3.org/2000/svg">
<path d="M8.75009 16.4333C8.36675 16.4333 8.00842 16.2833 7.73342 16.0083L4.05009 12.3333L3.53342 12.0833L3.20842 11.9333C2.98342 11.825 2.87509 11.6 2.94175 11.375C3.00009 11.175 3.18342 11.0333 3.39176 11.0333H3.45009L3.58342 11.075C3.89176 11.2167 4.20009 11.3583 4.50842 11.5C4.59175 11.5333 4.64175 11.5917 4.68342 11.6333L8.36675 15.325C8.47509 15.4333 8.57509 15.4917 8.70842 15.5083H8.71675C8.99175 15.5083 9.20842 15.325 9.24176 15.1167C9.27509 14.9333 9.22509 14.7833 9.08342 14.6417L8.88342 14.4417C8.69175 14.2417 8.69175 13.95 8.88342 13.7667C8.97509 13.6833 9.08342 13.6333 9.20009 13.6333C9.32509 13.6333 9.45009 13.6917 9.55009 13.7833L10.6584 14.8917C10.7584 14.9917 10.8918 15.05 11.0168 15.05C11.1418 15.05 11.2501 15 11.3501 14.9167C11.4418 14.8333 11.5001 14.7083 11.5084 14.575C11.5168 14.45 11.4751 14.3333 11.3918 14.2417C11.2001 14.0417 11.0084 13.85 10.8084 13.65L10.4501 13.2917C10.2751 13.0917 10.2834 12.8167 10.4584 12.6333C10.5501 12.55 10.6584 12.5 10.7834 12.5C10.9001 12.5 11.0168 12.55 11.1084 12.6333C11.1751 12.6917 11.6251 13.15 11.6251 13.15L12.4584 13.9833C12.5668 14.0917 12.6751 14.1417 12.8001 14.1417C12.8501 14.1417 12.9001 14.1333 12.9501 14.1167C13.1334 14.0667 13.2418 13.95 13.2918 13.7667C13.3334 13.5917 13.3001 13.45 13.1834 13.325C12.9668 13.1 11.9751 12.1 11.9751 12.1C11.8751 12 11.8334 11.8583 11.8168 11.7917C11.7834 11.6 11.8751 11.425 12.0501 11.3333L12.1084 11.3L12.2668 11.275C12.3584 11.275 12.4501 11.3 12.5251 11.3583L12.6251 11.4417L14.2251 13.0417C14.3084 13.125 14.4501 13.225 14.6168 13.225C14.7834 13.225 14.9251 13.1167 15.0168 13.0333C15.1501 12.9 15.2084 12.775 15.2001 12.6167C15.2001 12.5167 15.1584 12.4167 15.0751 12.3083L12.0501 8.24166L11.1334 7.90833L9.72509 7.36666L8.28342 8.80833C8.00009 9.09166 7.63342 9.24166 7.25842 9.24166C7.00842 9.24166 6.75842 9.175 6.53342 9.04166C6.15009 8.81666 5.90009 8.44166 5.84176 8C5.78342 7.56666 5.93342 7.13333 6.25009 6.80833C6.55842 6.49166 7.24175 5.81666 7.24175 5.81666L3.30842 4.925C3.03342 4.85833 2.87509 4.625 2.93342 4.36666C2.97509 4.15 3.16676 4 3.39176 4H3.42509L3.51675 4.01666L8.01675 5.04166C8.11675 4.94166 8.24176 4.88333 8.34176 4.84166C9.21676 4.475 10.1001 4.10833 10.9668 3.74166C11.1251 3.675 11.2918 3.64166 11.4501 3.64166C11.6001 3.64166 11.7501 3.675 11.9001 3.73333L14.5418 4.75L17.3168 4L17.4668 3.98333C17.7418 4.01666 17.9168 4.19166 17.9251 4.41666C17.9418 4.63333 17.8001 4.83333 17.5834 4.89166C17.5834 4.89166 15.2918 5.51666 14.7001 5.675L14.6668 5.68333L14.5418 5.69166C14.4668 5.69166 14.3834 5.675 14.3168 5.65C13.4001 5.3 12.4751 4.94166 11.5584 4.59166H11.4668H11.3668L8.65842 5.725L6.92509 7.45833C6.81676 7.575 6.75842 7.71666 6.76675 7.86666C6.77509 8.00833 6.85009 8.13333 6.96675 8.225C7.05009 8.28333 7.15009 8.31666 7.25009 8.31666C7.38342 8.31666 7.52509 8.25833 7.63342 8.15L9.25842 6.525C9.38342 6.38333 9.51675 6.35833 9.60842 6.35833H9.65842L9.80009 6.4C10.7001 6.75 11.6084 7.1 12.5168 7.44166C12.6834 7.5 12.7668 7.625 12.8251 7.7L15.7251 11.6L16.1501 11.3917C16.2501 11.3417 16.3418 11.3 16.4334 11.2417C16.6834 11.0917 16.9418 11.0667 17.1584 11.0583L17.4168 11.0417C17.7168 11.0417 17.9168 11.225 17.9334 11.475C17.9501 11.7333 17.7501 11.95 17.4751 11.9667L16.9918 12.0083L16.1501 12.4333C16.2168 12.9 16.0834 13.3167 15.7334 13.675C15.4668 13.95 15.1751 14.1083 14.8418 14.15C14.7751 14.1583 14.7084 14.1667 14.6418 14.1667C14.4918 14.1667 14.3418 14.1417 14.1918 14.0917C14.0751 14.4583 13.8334 14.7417 13.4751 14.9167C13.2668 15.0167 13.0501 15.075 12.8334 15.075C12.6751 15.075 12.5251 15.05 12.3751 14.9917C12.3501 15.0583 12.3251 15.1333 12.2918 15.2C12.0501 15.675 11.5668 15.975 11.0251 15.975C10.6668 15.975 10.3251 15.8417 10.0584 15.6C9.81675 16.1083 9.31675 16.4333 8.75009 16.4333Z" fill="#161719"/>
</svg>