<svg width="24" height="24" viewBox="0 0 24 24" fill="none" xmlns="http://www.w3.org/2000/svg">
    <g id="Refund">
    <path id="Vector" fill-rule="evenodd" clip-rule="evenodd" d="M4.84465 4C3.82869 4 3 4.81826 3 5.82143V19.1786C3 20.1818 3.82869 21 4.84465 21H18.3721C19.388 21 20.2167 20.1818 20.2167 19.1786V12.5C20.2167 12.1647 19.9414 11.8929 19.6018 11.8929C19.2623 11.8929 18.9869 12.1647 18.9869 12.5V19.1786C18.9869 19.5111 18.7089 19.7857 18.3721 19.7857H4.84465C4.50787 19.7857 4.22977 19.5111 4.22977 19.1786V5.82143C4.22977 5.48889 4.50787 5.21429 4.84465 5.21429H10.3786C10.7182 5.21429 10.9934 4.94246 10.9934 4.60714C10.9934 4.27183 10.7182 4 10.3786 4H4.84465ZM13.0963 4.03647C12.7567 4.03647 12.4815 4.30829 12.4815 4.64361C12.4815 4.97893 12.7567 5.25075 13.0963 5.25075H17.2161C17.6853 5.25075 18.1386 5.43295 18.4601 5.75919L18.466 5.76507C18.7962 6.09107 18.9869 6.53274 18.9869 6.99933C18.9869 7.29445 18.9815 7.94793 18.9757 8.55802L18.2536 7.845C18.0135 7.6079 17.6242 7.6079 17.3839 7.845C17.1438 8.08209 17.1438 8.46652 17.3839 8.70363L19.1671 10.4643C19.4073 10.7014 19.7966 10.7014 20.0368 10.4643L21.8199 8.70363C22.06 8.46652 22.06 8.08209 21.8199 7.845C21.5798 7.6079 21.1905 7.6079 20.9503 7.845L20.2053 8.58064C20.2111 7.96876 20.2167 7.30294 20.2167 6.99933C20.2167 6.20447 19.892 5.4574 19.3387 4.90938C18.7749 4.33897 17.9998 4.03647 17.2161 4.03647H13.0963ZM12.1126 17.4786C12.2233 17.5879 12.3709 17.6486 12.5308 17.6486C12.7029 17.6486 12.8628 17.5879 12.9735 17.4664C13.2071 17.2236 13.1948 16.8471 12.9489 16.6164L10.4156 14.2486H11.0919C12.1987 14.2486 13.1579 13.5321 13.4531 12.4879H14.3139C14.646 12.4879 14.9165 12.2207 14.9165 11.8929C14.9165 11.565 14.646 11.2979 14.3139 11.2979H13.49C13.4285 11.0549 13.3301 10.8242 13.2071 10.6057H14.3139C14.646 10.6057 14.9165 10.3385 14.9165 10.0107C14.9165 9.68281 14.646 9.41566 14.3139 9.41566H8.90295C8.57091 9.41566 8.30036 9.68281 8.30036 10.0107C8.30036 10.3385 8.57091 10.6057 8.90295 10.6057H11.0919C11.5715 10.6057 12.002 10.8728 12.211 11.2979H8.90295C8.57091 11.2979 8.30036 11.565 8.30036 11.8929C8.30036 12.2207 8.57091 12.4879 8.90295 12.4879H12.1372C11.9036 12.8279 11.5223 13.0464 11.0919 13.0464H8.90295C8.6447 13.0464 8.42334 13.1921 8.33726 13.4229C8.25117 13.6536 8.30036 13.9086 8.48483 14.0786L12.1126 17.4786Z" fill="#767888"/>
    </g>
</svg>