<svg width="20" height="20" viewBox="0 0 20 20" fill="none" xmlns="http://www.w3.org/2000/svg">
<path fill-rule="evenodd" clip-rule="evenodd" d="M11.7313 5.83333H8.26948C7.31154 5.83333 6.53856 5.03575 6.53856 4.04767H4.23093C4.08069 4.04767 3.93046 4.10717 3.82707 4.22617C3.72288 4.33334 3.65422 4.48809 3.65422 4.64284V16.5475C3.65422 16.7025 3.71157 16.8575 3.82707 16.9642C3.93046 17.0833 4.08069 17.1425 4.23093 17.1425H15.7699C15.9193 17.1425 16.0695 17.0833 16.1737 16.9642C16.2771 16.8575 16.3466 16.7025 16.3466 16.5475V4.64284C16.3466 4.48809 16.2884 4.33334 16.1737 4.22617C16.0695 4.11909 15.9193 4.04767 15.7699 4.04767H13.4614C13.4614 5.03575 12.6885 5.83333 11.7313 5.83333ZM8.26948 1.66667C7.51427 1.66667 6.87376 2.16275 6.63629 2.85716H4.23093C3.76892 2.85716 3.33113 3.04767 3.00805 3.381C2.68496 3.71433 2.5 4.16667 2.5 4.64284V16.5475C2.5 17.0242 2.68496 17.4883 3.00805 17.8092C3.33113 18.1425 3.76892 18.3333 4.23093 18.3333H15.7699C16.2198 18.3333 16.6697 18.1425 16.9928 17.8092C17.3158 17.4758 17.5 17.0242 17.5 16.5475V4.64284C17.5 4.16667 17.3158 3.71433 16.9928 3.381C16.6697 3.04767 16.2311 2.85716 15.7699 2.85716H13.3637C13.1271 2.16275 12.4865 1.66667 11.7313 1.66667H8.26948ZM7.69277 3.45308C7.69277 3.11975 7.9464 2.85716 8.26948 2.85716H11.7313C12.0544 2.85716 12.308 3.11908 12.308 3.45242V4.04759C12.308 4.38092 12.0544 4.64284 11.7313 4.64284H8.26948C7.9464 4.64284 7.69277 4.38092 7.69277 4.04759V3.45308ZM6.53856 8.8095H13.4614C13.7845 8.8095 14.039 8.54758 14.039 8.21425C14.039 7.88092 13.7845 7.619 13.4614 7.619H6.53856C6.21547 7.619 5.96185 7.88092 5.96185 8.21425C5.96185 8.54758 6.21547 8.8095 6.53856 8.8095ZM13.4614 11.7857H6.53856C6.21547 11.7857 5.96185 11.5237 5.96185 11.1904C5.96185 10.8571 6.21547 10.5952 6.53856 10.5952H13.4614C13.7845 10.5952 14.039 10.8571 14.039 11.1904C14.039 11.5237 13.7845 11.7857 13.4614 11.7857ZM6.53856 14.7617H11.1538C11.4769 14.7617 11.7313 14.5 11.7313 14.1667C11.7313 13.8334 11.4769 13.5715 11.1538 13.5715H6.53856C6.21547 13.5715 5.96185 13.8334 5.96185 14.1667C5.96185 14.5 6.21547 14.7617 6.53856 14.7617Z" fill="#767888"/>
</svg>
