<svg width="20" height="20" viewBox="0 0 20 20" fill="none" xmlns="http://www.w3.org/2000/svg">
<path fill-rule="evenodd" clip-rule="evenodd" d="M5.96905 12.4316C5.72905 12.4316 5.50097 12.3595 5.29688 12.2263C5.1048 12.0814 4.94872 11.9004 4.86472 11.6717L4.61263 11.02L3.89238 10.6455L3.30422 10.7661C3.25622 10.7787 3.19622 10.7787 3.14813 10.7787C2.96813 10.7787 2.78805 10.7418 2.63197 10.6581C2.41597 10.5609 2.23588 10.3925 2.1158 10.1872L1.83972 9.7047C1.73172 9.49945 1.67172 9.2699 1.68372 9.02862C1.69572 8.78735 1.79171 8.55781 1.9358 8.36513L2.35589 7.82141L2.33188 7.01298L1.9358 6.56647C1.77971 6.37378 1.69572 6.14424 1.67172 5.90297C1.64772 5.6617 1.70771 5.43214 1.82771 5.21516L2.1038 4.74433C2.22389 4.53908 2.39188 4.37071 2.60797 4.27353C2.76405 4.18976 2.94413 4.15288 3.12413 4.15288C3.17213 4.15288 3.23222 4.1529 3.28022 4.16546L3.97647 4.27353L4.62463 3.86386L4.85272 3.25985C4.93672 3.03115 5.0928 2.85018 5.28489 2.70525C5.47697 2.57204 5.70497 2.5 5.94505 2.5H6.5093C6.74938 2.5 6.97738 2.57204 7.18146 2.70525C7.39755 2.83761 7.54163 3.03115 7.62563 3.25985L7.87772 3.91161L8.59797 4.28608L9.18613 4.16546L9.21171 4.16043C9.26046 4.15037 9.30297 4.14117 9.35422 4.14117C9.53422 4.14117 9.7143 4.17718 9.87039 4.2618C10.0865 4.3707 10.2545 4.52737 10.3745 4.73262L10.6506 5.21516C10.7706 5.42041 10.8307 5.6617 10.8066 5.90297C10.7946 6.14424 10.7106 6.37378 10.5546 6.56647L10.1345 7.11016L10.1705 7.93032L10.5665 8.37686C10.7226 8.57038 10.8066 8.79908 10.8186 9.04036C10.8427 9.28163 10.7826 9.51116 10.6626 9.72814L10.3866 10.2115C10.2785 10.3925 10.0985 10.5609 9.89438 10.6581C9.7383 10.7418 9.5583 10.7787 9.37821 10.7787C9.33021 10.7787 9.27014 10.7787 9.22214 10.7661L8.51389 10.6698L7.87772 11.0677L7.64964 11.6717C7.55364 11.9004 7.40955 12.0814 7.21747 12.2263C7.01347 12.3595 6.78538 12.4316 6.5453 12.4316H5.96905ZM4.04847 9.64439C4.13247 9.64439 4.21655 9.66784 4.30055 9.7047L5.29688 10.2836C5.39288 10.3439 5.46488 10.4402 5.51297 10.5491L5.80105 11.309C5.81305 11.3459 5.83705 11.3693 5.87305 11.3936C5.90905 11.4179 5.94505 11.4296 5.98113 11.4296H6.5573C6.5933 11.4296 6.6293 11.4179 6.6653 11.3936C6.6698 11.3852 6.67589 11.376 6.68247 11.366C6.69355 11.35 6.7058 11.3325 6.7133 11.309L7.00147 10.5491C7.03747 10.4402 7.12147 10.3556 7.21747 10.2953L8.2138 9.71643C8.29788 9.66784 8.38188 9.64439 8.46588 9.64439L9.35422 9.77674L9.53422 9.69212L9.81038 9.20958C9.82238 9.17356 9.83438 9.13753 9.82238 9.10067C9.82238 9.06465 9.81038 9.02863 9.7863 9.00433L9.27013 8.35255C9.21013 8.26794 9.16213 8.15987 9.16213 8.03923V6.89236C9.16213 6.78429 9.19813 6.67536 9.27013 6.57902L9.7743 5.93899C9.7983 5.90297 9.81038 5.87868 9.81038 5.83092C9.81038 5.79406 9.79838 5.75804 9.7863 5.72201L9.51021 5.23945L9.35422 5.15485L8.52588 5.27547H8.47788C8.35788 5.27547 8.27388 5.25118 8.2018 5.21516L7.20546 4.63626C7.10946 4.57595 7.03746 4.49135 6.98938 4.38244L6.7013 3.62259C6.6893 3.58573 6.6653 3.56228 6.6293 3.53799C6.6053 3.51369 6.5693 3.50197 6.5333 3.50197H5.96905C5.93305 3.50197 5.89705 3.51369 5.87305 3.53799C5.83705 3.56228 5.81305 3.58573 5.80105 3.62259L5.51297 4.38244C5.46488 4.49135 5.39289 4.58767 5.28489 4.63626L4.27655 5.21516C4.20455 5.26375 4.10847 5.28721 4.02447 5.28721L3.14813 5.15485L2.98013 5.23945L2.70405 5.72201C2.68005 5.75804 2.66805 5.79406 2.66805 5.83092C2.66805 5.86695 2.68005 5.90297 2.70405 5.93899L3.22022 6.57902C3.29222 6.66363 3.34022 6.77172 3.34022 6.89236V8.05097C3.34022 8.15988 3.30422 8.26795 3.23222 8.36513L2.72805 8.9926C2.70405 9.01689 2.69205 9.05291 2.69205 9.08893L2.71605 9.19785L2.99213 9.68041L3.14813 9.76501L3.96447 9.64439H4.04847ZM6.24522 9.34194C6.00513 9.34194 5.76505 9.29419 5.53697 9.19785C5.2008 9.05291 4.90072 8.81165 4.69663 8.51006C4.49263 8.1959 4.38455 7.834 4.38455 7.45952C4.38455 6.96524 4.58863 6.48269 4.93672 6.1325C5.27288 5.79405 5.75305 5.60136 6.25722 5.60136C6.6293 5.60136 6.98938 5.71029 7.27755 5.90297C7.58963 6.10822 7.82972 6.39808 7.96172 6.74742C8.1058 7.08588 8.1418 7.45951 8.0698 7.83399C7.99772 8.1959 7.81772 8.53352 7.55363 8.79909C7.31355 9.05293 6.97739 9.23387 6.6173 9.30591C6.4973 9.33021 6.36522 9.34194 6.24522 9.34194ZM6.24522 6.59075C6.01713 6.59075 5.78905 6.6871 5.63297 6.8446C5.47697 7.01299 5.38088 7.23081 5.38088 7.45952C5.38088 7.62875 5.42889 7.79797 5.52497 7.9429C5.62097 8.08699 5.75305 8.1959 5.90905 8.26795C6.01714 8.31654 6.12513 8.34081 6.24522 8.34081C6.30522 8.34081 6.35322 8.34083 6.41322 8.32826C6.5813 8.29224 6.7373 8.20763 6.85739 8.08699C6.97739 7.96636 7.06146 7.80968 7.09746 7.64045C7.13346 7.4595 7.10947 7.29112 7.04947 7.13363C6.98939 6.97697 6.86938 6.83203 6.7373 6.73569C6.5933 6.63935 6.42522 6.59075 6.24522 6.59075ZM16.7248 17.5H8.2378C7.81771 17.5 7.40955 17.3308 7.10947 17.0292C6.8093 16.7401 6.6413 16.3171 6.6413 15.8949V13.7712C6.6413 13.4813 6.88138 13.24 7.16947 13.24C7.45755 13.24 7.69763 13.4813 7.69763 13.7712V15.9074C7.69763 16.0515 7.75763 16.1847 7.85371 16.2811C7.9013 16.3288 7.96055 16.3682 8.02438 16.395C8.08938 16.4226 8.15913 16.4377 8.2258 16.4377H16.7123C16.7748 16.4377 16.834 16.4268 16.8898 16.4067C16.9465 16.3858 16.9998 16.3548 17.0456 16.3171C17.059 16.3054 17.0723 16.2936 17.0848 16.2811C17.1806 16.1847 17.2406 16.0398 17.2406 15.9074V5.23945C17.2406 5.18835 17.2331 5.13977 17.2198 5.09285C17.2131 5.07023 17.2048 5.04844 17.1956 5.02666C17.1806 4.99315 17.1623 4.96133 17.1406 4.93117C17.134 4.92196 17.1273 4.91357 17.1206 4.90435C17.109 4.89095 17.0973 4.87755 17.0848 4.86498C17.0256 4.8055 16.9473 4.75941 16.8656 4.73344C16.8456 4.72674 16.8248 4.72173 16.8048 4.71754C16.774 4.71168 16.7431 4.70831 16.7123 4.70831H11.959C11.6706 4.70831 11.4309 4.46706 11.4309 4.1772C11.4309 3.88733 11.659 3.63432 11.959 3.63432H16.7365C17.1565 3.63432 17.5648 3.80353 17.8648 4.10513C18.1648 4.39415 18.3331 4.81722 18.3331 5.23945V15.9074C18.3331 16.3297 18.1648 16.7402 17.8648 17.0418C17.5648 17.3308 17.1565 17.5 16.7248 17.5ZM15.1398 8.96831H11.959C11.6706 8.96831 11.4309 8.72704 11.4309 8.43717C11.4309 8.14731 11.6706 7.90603 11.959 7.90603H15.1398C15.4281 7.90603 15.6681 8.14731 15.6681 8.43717C15.6681 8.72704 15.4281 8.96831 15.1398 8.96831ZM11.959 11.6349H15.1398C15.4281 11.6349 15.6681 11.3936 15.6681 11.1046C15.6681 10.8147 15.4281 10.5734 15.1398 10.5734H11.959C11.6706 10.5734 11.4309 10.8147 11.4309 11.1046C11.4309 11.3936 11.6706 11.6349 11.959 11.6349ZM15.1398 14.3023H9.8343C9.54622 14.3023 9.30613 14.061 9.30613 13.7712C9.30613 13.4813 9.54622 13.24 9.8343 13.24H15.1398C15.4281 13.24 15.6681 13.4813 15.6681 13.7712C15.6681 14.061 15.4281 14.3023 15.1398 14.3023Z" fill="#767888"/>
</svg>
