<svg width="20" height="20" viewBox="0 0 20 20" fill="none" xmlns="http://www.w3.org/2000/svg">
<path d="M9.53909 17.4755C9.18884 17.4755 8.85105 17.3662 8.55085 17.1833C8.25057 17.0013 8.03794 16.721 7.91286 16.4043L7.4875 15.334L6.14895 14.5796L4.98559 14.7498C4.63526 14.798 4.28502 14.7498 3.97229 14.5914C3.65947 14.445 3.40933 14.2138 3.2342 13.9217L2.77133 13.1308C2.59613 12.8387 2.50857 12.4983 2.53363 12.1571C2.55862 11.8166 2.68378 11.4881 2.90895 11.2205L3.63449 10.3315V8.82255L2.88388 7.92242C2.65871 7.65404 2.5211 7.32551 2.50857 6.98509C2.47106 6.64388 2.55862 6.30347 2.73374 6.01134L3.19661 5.22046C3.37181 4.92834 3.63449 4.69718 3.94722 4.55072C4.25995 4.40505 4.61028 4.34409 4.94799 4.39317L6.12396 4.56338L7.4875 3.80892L7.91286 2.74967C8.03794 2.42113 8.2631 2.15355 8.55085 1.9588C8.8386 1.76405 9.17631 1.66667 9.52663 1.66667H10.4774C10.8273 1.66667 11.1658 1.77592 11.4653 1.97067C11.7533 2.16542 11.9788 2.433 12.1033 2.74967L12.5289 3.82079L13.8675 4.57525L15.0312 4.40505C15.3811 4.35596 15.7318 4.41692 16.0443 4.56338C16.3568 4.70904 16.6074 4.94021 16.7824 5.23234L17.2454 6.02322C17.4204 6.31534 17.5083 6.65655 17.4831 6.99697C17.4578 7.33817 17.3325 7.66672 17.1079 7.9343L16.382 8.82255V10.3315L17.1201 11.2324C17.3455 11.5 17.47 11.8285 17.4953 12.1697C17.5205 12.5101 17.4456 12.8387 17.2576 13.1435L16.7946 13.9343C16.6196 14.2265 16.3698 14.4576 16.0565 14.6033C15.744 14.7498 15.3941 14.8107 15.0556 14.7616L13.8797 14.5914L12.5419 15.3459L12.1163 16.417C11.991 16.7337 11.7655 17.0131 11.4783 17.2079C11.1902 17.4026 10.8525 17.5 10.5023 17.5H9.53909V17.4755ZM6.26157 13.4229C6.36166 13.4229 6.46167 13.4475 6.54923 13.4958L8.25057 14.445C8.36319 14.5059 8.45076 14.616 8.5008 14.7252L9.00119 15.9784C9.0387 16.0885 9.11381 16.1732 9.2139 16.2468C9.30146 16.3196 9.41401 16.356 9.53909 16.356H10.5149C10.6275 16.356 10.7402 16.3196 10.8403 16.2587C10.9404 16.1977 11.0153 16.1003 11.0527 15.9911L11.5532 14.7371C11.6036 14.616 11.6907 14.5186 11.8038 14.4576L13.5046 13.5084C13.6177 13.4475 13.7552 13.4229 13.8797 13.4348L15.2558 13.6422C15.3559 13.6541 15.4812 13.6422 15.5813 13.5813C15.6814 13.5322 15.7693 13.4593 15.8189 13.362L16.2819 12.5711C16.3446 12.4618 16.3698 12.3518 16.3698 12.2425C16.3568 12.1206 16.3194 12.0114 16.2445 11.9259L15.3689 10.8793C15.281 10.7819 15.2436 10.6481 15.2436 10.5262V8.61592C15.2436 8.49401 15.294 8.37209 15.3689 8.26284L16.2193 7.21625C16.2941 7.11888 16.3446 7.02151 16.3446 6.89959C16.3568 6.79034 16.3316 6.66843 16.2697 6.57105L15.7937 5.78017C15.7318 5.6828 15.6561 5.60997 15.5438 5.56089C15.4438 5.51259 15.3315 5.48805 15.2061 5.51259L13.8423 5.71922C13.7178 5.74376 13.5794 5.71921 13.4671 5.64637L11.7786 4.69717C11.6655 4.62434 11.5784 4.52696 11.5279 4.40505L11.0275 3.15105C10.99 3.0418 10.9152 2.95708 10.8151 2.89613C10.715 2.8225 10.6024 2.78609 10.4899 2.78609H9.53909C9.42654 2.78609 9.31391 2.82251 9.2139 2.88347C9.11381 2.95709 9.0387 3.0418 9.00119 3.15105L8.5008 4.40505C8.45076 4.52696 8.36319 4.62434 8.25057 4.69717L6.52425 5.64637C6.41163 5.70733 6.27402 5.73188 6.14895 5.70734L4.77287 5.49992C4.66033 5.48804 4.5477 5.49993 4.44761 5.54901C4.34752 5.5973 4.25995 5.67092 4.19746 5.7683L3.74704 6.57105C3.68454 6.68109 3.65948 6.79034 3.65948 6.89959C3.67201 7.02151 3.70952 7.13075 3.78463 7.21625L4.66033 8.26284C4.74789 8.36021 4.7854 8.49401 4.7854 8.61592V10.5143C4.7854 10.6363 4.73536 10.7574 4.66033 10.8674L3.80962 11.9259C3.73459 12.0233 3.68454 12.1206 3.68454 12.2425C3.67201 12.3518 3.69707 12.4737 3.75957 12.5711L4.23497 13.3746C4.28502 13.472 4.37258 13.5448 4.47267 13.5931C4.57269 13.6422 4.69784 13.6668 4.81039 13.6422L6.17401 13.4348C6.19899 13.4229 6.22405 13.4229 6.26157 13.4229ZM10.0145 12.4009C9.63918 12.4009 9.26387 12.328 8.90109 12.1816C8.36319 11.9623 7.91286 11.61 7.60013 11.135C7.27487 10.6727 7.1122 10.1367 7.1122 9.56513C7.1122 8.82255 7.42492 8.09263 7.9629 7.56933C8.91362 6.64388 10.5149 6.49821 11.628 7.21625C12.1033 7.53292 12.4792 7.97071 12.6916 8.48213C12.917 9.00542 12.9667 9.57701 12.8666 10.1248C12.7412 10.6727 12.4662 11.1714 12.0658 11.5728C11.6654 11.9623 11.1406 12.2307 10.5775 12.3399C10.3898 12.3763 10.2021 12.4009 10.0145 12.4009ZM10.0145 7.87334C9.55162 7.87334 9.10128 8.05622 8.78855 8.37209C8.45076 8.68876 8.27563 9.12734 8.27563 9.56513C8.27563 9.90555 8.37573 10.2222 8.56338 10.5025C8.75103 10.7819 9.02625 11.0012 9.35151 11.1231C9.67669 11.2569 10.0145 11.2815 10.3523 11.2205C10.6897 11.1714 11.003 11.0012 11.2407 10.77C11.4905 10.5389 11.6532 10.2341 11.7159 9.90555C11.7908 9.577 11.7533 9.23659 11.6158 8.91992C11.4905 8.61592 11.2651 8.34834 10.9778 8.16546C10.6897 7.97071 10.3523 7.87334 10.0145 7.87334Z" fill="#767888"/>
</svg>
