<svg width="32" height="32" viewBox="0 0 32 32" fill="none" xmlns="http://www.w3.org/2000/svg">
<path fill-rule="evenodd" clip-rule="evenodd" d="M12.0429 8.03602C12.2069 8.21736 12.4455 8.30669 12.6829 8.30669V8.32536C12.9015 8.32536 13.1402 8.23469 13.3229 8.05469C13.6882 7.69336 13.6882 7.13203 13.3229 6.77069L9.55491 3.04429C9.39091 2.81429 9.11892 2.66669 8.80826 2.66669C8.49759 2.66669 8.22694 2.81282 8.06295 3.04082L4.275 6.75203C3.90833 7.11469 3.90833 7.67469 4.275 8.03602C4.64032 8.39736 5.20697 8.39736 5.5723 8.03602L7.89364 5.74015V13.804C7.89364 14.3094 8.29626 14.7067 8.80826 14.7067C9.31892 14.7067 9.72157 14.3094 9.72157 13.804V5.74029L12.0429 8.03602ZM25.2587 29.3334H10.6349C9.90428 29.3334 9.20961 29.044 8.69762 28.5374C8.18563 28.0494 7.89364 27.344 7.89364 26.6214V18.4854C7.89364 17.98 8.29626 17.5814 8.80826 17.5814C9.31892 17.5814 9.72157 17.98 9.72157 18.4854V26.6214C9.72157 26.856 9.81227 27.092 9.99627 27.2547C10.1603 27.4347 10.3976 27.5254 10.6349 27.5254H25.2587C25.496 27.5254 25.7334 27.4347 25.8974 27.2547C26.0627 27.0734 26.172 26.856 26.172 26.6214V8.54269C26.172 8.30669 26.0814 8.07202 25.8974 7.90935C25.7334 7.72935 25.496 7.63868 25.2587 7.63868H17.0335C16.5215 7.63868 16.1188 7.24002 16.1188 6.73469C16.1188 6.22829 16.5215 5.83056 17.0335 5.83056H25.2587C25.9894 5.83056 26.684 6.11989 27.196 6.62589C27.708 7.13202 28 7.81869 28 8.54269V26.6214C28 27.344 27.708 28.032 27.196 28.5374C26.684 29.044 25.9894 29.3334 25.2587 29.3334ZM13.3775 14.8694H22.5161C23.0281 14.8694 23.4307 14.472 23.4307 13.9667C23.4307 13.46 23.0281 13.0627 22.5161 13.0627H13.3775C12.8655 13.0627 12.4629 13.46 12.4629 13.9667C12.4629 14.472 12.8655 14.8694 13.3775 14.8694ZM22.5161 19.3894H13.3775C12.8655 19.3894 12.4629 18.992 12.4629 18.4854C12.4629 17.98 12.8655 17.5814 13.3775 17.5814H22.5161C23.0281 17.5814 23.4307 17.98 23.4307 18.4854C23.4307 18.992 23.0281 19.3894 22.5161 19.3894ZM13.3775 23.9094H22.5161C23.0281 23.9094 23.4307 23.512 23.4307 23.0054C23.4307 22.5 23.0281 22.1014 22.5161 22.1014H13.3775C12.8655 22.1014 12.4629 22.5 12.4629 23.0054C12.4629 23.512 12.8655 23.9094 13.3775 23.9094Z" fill="#475BD8"/>
</svg>
