<svg width="32" height="32" viewBox="0 0 32 32" fill="none" xmlns="http://www.w3.org/2000/svg">
<path fill-rule="evenodd" clip-rule="evenodd" d="M12.0429 8.03584C12.2069 8.21717 12.4455 8.30651 12.6829 8.30651V8.32518C12.9015 8.32518 13.1402 8.23451 13.3229 8.05451C13.6882 7.69317 13.6882 7.13184 13.3229 6.77051L9.55491 3.04411C9.39091 2.81411 9.11892 2.6665 8.80826 2.6665C8.49759 2.6665 8.22694 2.81264 8.06295 3.04064L4.275 6.75184C3.90833 7.11451 3.90833 7.67451 4.275 8.03584C4.64032 8.39717 5.20697 8.39717 5.5723 8.03584L7.89364 5.73997V13.8038C7.89364 14.3092 8.29626 14.7065 8.80826 14.7065C9.31892 14.7065 9.72157 14.3092 9.72157 13.8038V5.7401L12.0429 8.03584ZM25.2587 29.3332H10.6349C9.90428 29.3332 9.20961 29.0438 8.69762 28.5372C8.18563 28.0492 7.89364 27.3438 7.89364 26.6212V18.4852C7.89364 17.9798 8.29626 17.5812 8.80826 17.5812C9.31892 17.5812 9.72157 17.9798 9.72157 18.4852V26.6212C9.72157 26.8558 9.81227 27.0918 9.99627 27.2545C10.1603 27.4345 10.3976 27.5252 10.6349 27.5252H25.2587C25.496 27.5252 25.7334 27.4345 25.8974 27.2545C26.0627 27.0732 26.172 26.8558 26.172 26.6212V8.5425C26.172 8.3065 26.0814 8.07184 25.8974 7.90917C25.7334 7.72917 25.496 7.6385 25.2587 7.6385H17.0335C16.5215 7.6385 16.1188 7.23984 16.1188 6.73451C16.1188 6.22811 16.5215 5.83037 17.0335 5.83037H25.2587C25.9894 5.83037 26.684 6.1197 27.196 6.6257C27.708 7.13184 28 7.8185 28 8.5425V26.6212C28 27.3438 27.708 28.0318 27.196 28.5372C26.684 29.0438 25.9894 29.3332 25.2587 29.3332ZM13.3775 14.8692H22.5161C23.0281 14.8692 23.4307 14.4718 23.4307 13.9665C23.4307 13.4598 23.0281 13.0625 22.5161 13.0625H13.3775C12.8655 13.0625 12.4629 13.4598 12.4629 13.9665C12.4629 14.4718 12.8655 14.8692 13.3775 14.8692ZM22.5161 19.3892H13.3775C12.8655 19.3892 12.4629 18.9918 12.4629 18.4852C12.4629 17.9798 12.8655 17.5812 13.3775 17.5812H22.5161C23.0281 17.5812 23.4307 17.9798 23.4307 18.4852C23.4307 18.9918 23.0281 19.3892 22.5161 19.3892ZM13.3775 23.9092H22.5161C23.0281 23.9092 23.4307 23.5118 23.4307 23.0052C23.4307 22.4998 23.0281 22.1012 22.5161 22.1012H13.3775C12.8655 22.1012 12.4629 22.4998 12.4629 23.0052C12.4629 23.5118 12.8655 23.9092 13.3775 23.9092Z" fill="#161719"/>
</svg>
