<svg width="20" height="20" viewBox="0 0 20 20" fill="none" xmlns="http://www.w3.org/2000/svg">
<path fill-rule="evenodd" clip-rule="evenodd" d="M10.0063 5.43743C8.92078 5.43743 8.03387 4.58986 8.03387 3.55163C8.03387 2.51423 8.92078 1.66666 10.0063 1.66666C11.0918 1.66666 11.9789 2.51423 11.9789 3.55163C11.9789 4.58986 11.0918 5.43743 10.0063 5.43743ZM10.0063 2.66659C9.50325 2.66659 9.0929 3.05873 9.0929 3.53913C9.0929 4.02036 9.50325 4.41252 10.0063 4.41252C10.5093 4.41252 10.9198 4.02036 10.9198 3.53913C10.9198 3.05873 10.5093 2.66659 10.0063 2.66659ZM9.34446 10.0433H6.57765V8.91679C6.57765 8.04424 6.93513 7.22166 7.5838 6.60138C8.85458 5.38664 11.158 5.38664 12.4292 6.60138C13.0773 7.22166 13.4353 8.04424 13.4353 8.91679V10.0433H10.6682V12.1339H15.632C16.6912 12.1339 17.5649 12.9557 17.5649 13.9806V15.6008C17.5649 15.6516 17.5588 15.7015 17.5466 15.7498C18.01 15.9771 18.3332 16.4409 18.3332 16.967C18.3332 17.7139 17.6973 18.3333 16.9029 18.3333C16.1094 18.3333 15.4735 17.7139 15.4735 16.967C15.4735 16.4409 15.7958 15.9779 16.2592 15.7498C16.2479 15.7023 16.2409 15.6524 16.2409 15.6008V13.9806C16.2409 13.6642 15.963 13.3986 15.632 13.3986H10.6682V15.6008C10.6682 15.6516 10.6615 15.7015 10.6487 15.749C11.1131 15.9763 11.4362 16.44 11.4362 16.967C11.4362 17.7139 10.7874 18.3333 10.0063 18.3333C9.21206 18.3333 8.57662 17.7139 8.57662 16.967C8.57662 16.4409 8.89874 15.9779 9.36231 15.7498C9.35064 15.7023 9.34446 15.6524 9.34446 15.6008V13.3986H4.36702C4.03602 13.3986 3.75807 13.6642 3.75807 13.9806V15.6008C3.75807 15.6524 3.75188 15.7023 3.74012 15.7498C4.2037 15.9779 4.5259 16.4409 4.5259 16.967C4.5259 17.7139 3.89046 18.3333 3.09615 18.3333C2.30193 18.3333 1.6665 17.7139 1.6665 16.967C1.6665 16.4409 1.98862 15.9779 2.45219 15.7498C2.44043 15.7023 2.43425 15.6524 2.43425 15.6008V13.9806C2.43425 12.969 3.29476 12.1339 4.36702 12.1339H9.34446V10.0433ZM7.63677 9.03086H12.363V8.91679C12.363 8.30984 12.1113 7.74035 11.674 7.3224C10.8006 6.47483 9.21206 6.47483 8.32507 7.3224C7.88824 7.75284 7.63677 8.32232 7.63677 8.91679V9.03086ZM3.09615 16.5491C2.85792 16.5491 2.65933 16.7389 2.65933 16.967C2.65933 17.1943 2.85792 17.3842 3.09615 17.3842C3.33447 17.3842 3.53307 17.1943 3.53307 16.967C3.53307 16.7389 3.34771 16.5491 3.09615 16.5491ZM16.4665 16.967C16.4665 16.7389 16.6651 16.5491 16.9029 16.5491C17.1546 16.5491 17.3402 16.7389 17.3402 16.967C17.3402 17.1943 17.1416 17.3842 16.9029 17.3842C16.6651 17.3842 16.4665 17.1943 16.4665 16.967ZM10.0063 16.5491C9.76805 16.5491 9.56945 16.7389 9.56945 16.967C9.56945 17.1943 9.76805 17.3842 10.0063 17.3842C10.2446 17.3842 10.4432 17.1943 10.4432 16.967C10.4432 16.7389 10.2446 16.5491 10.0063 16.5491Z" fill="#767888"/>
</svg>
