<svg width="32" height="32" viewBox="0 0 32 32" fill="none" xmlns="http://www.w3.org/2000/svg">
<path fill-rule="evenodd" clip-rule="evenodd" d="M10.5361 14.2384C7.27306 14.2384 4.5191 11.8348 3.17728 10.4056C2.85365 10.036 2.66699 9.5824 2.66699 9.1108C2.66699 8.6404 2.8367 8.1868 3.16034 7.8328C4.51913 6.4042 7.25609 4 10.5361 4C13.8161 4 16.553 6.4042 17.8949 7.8328C18.2185 8.1868 18.4052 8.6404 18.4052 9.1108C18.4052 9.5824 18.2355 10.036 17.9118 10.3888C16.57 11.818 13.8161 14.2216 10.5361 14.2216V14.2384ZM4.38193 9.02464C5.53829 10.2522 7.90215 12.5572 10.5361 12.5572C13.17 12.5572 15.7203 10.2544 16.6549 9.262L17.284 8.4052L16.7659 9.1108C15.8314 8.1196 13.2731 5.68132 10.5361 5.68132C7.80033 5.68132 5.57366 7.7488 4.4173 8.9764L3.78819 9.8344L4.38193 9.02464ZM10.5361 12.1036C8.87064 12.1036 7.52761 10.7584 7.52761 9.1276C7.52761 7.49716 8.87064 6.15208 10.5361 6.15208C12.2015 6.15208 13.5446 7.49716 13.5446 9.1276C13.5446 10.7584 12.1846 12.1036 10.5361 12.1036ZM10.5361 7.816C9.80518 7.816 9.22698 8.4052 9.22698 9.1108C9.22698 9.8176 9.82215 10.4056 10.5361 10.4056C11.25 10.4056 11.8452 9.8176 11.8452 9.1108C11.8452 8.4052 11.25 7.816 10.5361 7.816ZM12.5846 28H26.6888C27.3761 28 28.0646 27.7048 28.5579 27.1876C29.0512 26.6704 29.3337 25.9696 29.3337 25.2304V6.76924C29.3337 6.03076 29.0512 5.32924 28.5579 4.81228C28.0646 4.29544 27.3943 4 26.6888 4H18.7555C18.2609 4 17.8731 4.4062 17.8731 4.92304C17.8731 5.44 18.2609 5.8462 18.7555 5.8462H26.6888C26.9179 5.8462 27.147 5.95696 27.3058 6.12304C27.4828 6.28924 27.57 6.52924 27.57 6.76924V25.2304C27.57 25.4704 27.4646 25.7104 27.3058 25.8772C27.147 26.062 26.9179 26.1544 26.6888 26.1544H12.5846C12.3555 26.1544 12.1264 26.062 11.9676 25.8772C11.7906 25.7104 11.7033 25.4704 11.7033 25.2304V17.8456C11.7033 17.3296 11.3155 16.9228 10.8209 16.9228C10.3276 16.9228 9.93972 17.3296 9.93972 17.8456V25.2304C9.93972 25.9696 10.2222 26.6896 10.7155 27.1876C11.2088 27.7048 11.8791 28 12.5846 28ZM17.924 16.9288H23.0234C23.4985 16.9288 23.8731 16.5592 23.8731 16.0888C23.8731 15.6172 23.4985 15.2476 23.0234 15.2476H17.924C17.4476 15.2476 17.0743 15.6172 17.0743 16.0888C17.0743 16.5592 17.4476 16.9288 17.924 16.9288ZM23.0221 21.1324H14.5252C14.0488 21.1324 13.6755 20.7628 13.6755 20.2912C13.6755 19.8208 14.0488 19.4512 14.5252 19.4512H23.0221C23.4985 19.4512 23.8731 19.8208 23.8731 20.2912C23.8731 20.7628 23.4985 21.1324 23.0221 21.1324Z" fill="#475BD8"/>
</svg>
